<svg xmlns="http://www.w3.org/2000/svg" viewBox="0 0 690.67 210.42"><defs><style>.cls-1{fill:#535a5d;}</style></defs><g id="Calque_2" data-name="Calque 2"><g id="Calque_2-2" data-name="Calque 2"><path class="cls-1" d="M228.45,208.56H202a1.72,1.72,0,0,1-1.39-.69l-58.09-77.68a1.74,1.74,0,0,0-2.6-.21l-11.26,10.86a1.75,1.75,0,0,0-.53,1.26l.22,64.72a1.73,1.73,0,0,1-1.74,1.74H105.56a1.73,1.73,0,0,1-1.74-1.74v-5.58a1.74,1.74,0,0,0-2.7-1.45q-2.43,1.61-5.06,3a68.18,68.18,0,0,1-32.33,7.65,68.15,68.15,0,0,1-32.33-7.65A58.4,58.4,0,0,1,8.46,181.33Q0,167.54,0,149.23V42.29a1.74,1.74,0,0,1,1.74-1.74H22.59a1.74,1.74,0,0,1,1.74,1.74V148.54a36.84,36.84,0,0,0,5.22,19.35A38.13,38.13,0,0,0,43.8,181.68a39.84,39.84,0,0,0,19.93,5.1,41.28,41.28,0,0,0,20.63-5.1,38.28,38.28,0,0,0,14.25-13.79,36.92,36.92,0,0,0,5.21-19.35V42.29a1.74,1.74,0,0,1,1.74-1.74H126a1.74,1.74,0,0,1,1.74,1.74v67.35a1.74,1.74,0,0,0,3.17,1h0a1.56,1.56,0,0,1,.16-.2L196.7,41.1a1.71,1.71,0,0,1,1.26-.55h26.7a1.75,1.75,0,0,1,1.26,3l-65.69,68.74a1.75,1.75,0,0,0-.13,2.26l69.73,91.27A1.73,1.73,0,0,1,228.45,208.56Z"/><path class="cls-1" d="M327.53,34.53h0a1,1,0,0,0-1,.64L253.93,207.08a1.74,1.74,0,0,0,1.6,2.42h20.31a1.73,1.73,0,0,0,1.61-1.09l16.39-40a1.73,1.73,0,0,1,1.61-1.08h60.91a1.73,1.73,0,0,1,1.62,1.1l15.7,40a1.73,1.73,0,0,0,1.62,1.11h24.23a1.74,1.74,0,0,0,1.6-2.42L328.49,35.17A1,1,0,0,0,327.53,34.53ZM303.79,144.07l21.15-51.65a1.74,1.74,0,0,1,3.23,0l20.27,51.64a1.75,1.75,0,0,1-1.62,2.38H305.4A1.74,1.74,0,0,1,303.79,144.07Z"/><path class="cls-1" d="M434.25,41.48h19.57a2.79,2.79,0,0,1,2.79,2.79v139a2.79,2.79,0,0,0,2.79,2.79h78.78a2.78,2.78,0,0,1,2.78,2.79v17.83a2.78,2.78,0,0,1-2.78,2.79H435.29a2.79,2.79,0,0,1-2.78-2.79V43.22A1.74,1.74,0,0,1,434.25,41.48Z"/><path class="cls-1" d="M579.09,41.48h106.6a1.74,1.74,0,0,1,1.74,1.74V63.15a1.74,1.74,0,0,1-1.74,1.74h-82.5a1.74,1.74,0,0,0-1.74,1.74v45a1.74,1.74,0,0,0,1.74,1.74h73.23a1.74,1.74,0,0,1,1.74,1.74V135a1.74,1.74,0,0,1-1.74,1.74H603.19a1.74,1.74,0,0,0-1.74,1.74v45.88a1.74,1.74,0,0,0,1.74,1.74h85.74a1.74,1.74,0,0,1,1.74,1.74v19.93a1.74,1.74,0,0,1-1.74,1.74H579.09a1.74,1.74,0,0,1-1.74-1.74V43.22A1.74,1.74,0,0,1,579.09,41.48ZM665.33,3,638.58,30.53a1.77,1.77,0,0,1-1.25.52H626.55a1.74,1.74,0,0,1-1.49-2.64L641.73.84A1.74,1.74,0,0,1,643.22,0h20.86A1.74,1.74,0,0,1,665.33,3Z"/></g></g></svg>