<svg xmlns="http://www.w3.org/2000/svg" xmlns:xlink="http://www.w3.org/1999/xlink" viewBox="0 0 905.36 760.57"><defs><style>.cls-1{fill:#ccc;}.cls-10,.cls-11,.cls-12,.cls-13,.cls-14,.cls-15,.cls-16,.cls-17,.cls-18,.cls-19,.cls-2,.cls-20,.cls-21,.cls-22,.cls-23,.cls-24,.cls-25,.cls-26,.cls-27,.cls-28,.cls-29,.cls-3,.cls-30,.cls-31,.cls-32,.cls-33,.cls-34,.cls-35,.cls-36,.cls-37,.cls-38,.cls-39,.cls-4,.cls-40,.cls-41,.cls-42,.cls-43,.cls-44,.cls-45,.cls-46,.cls-47,.cls-48,.cls-49,.cls-5,.cls-50,.cls-51,.cls-52,.cls-53,.cls-54,.cls-55,.cls-56,.cls-57,.cls-6,.cls-7,.cls-8,.cls-9{stroke-miterlimit:10;}.cls-10,.cls-11,.cls-12,.cls-13,.cls-14,.cls-15,.cls-16,.cls-17,.cls-18,.cls-19,.cls-2,.cls-20,.cls-21,.cls-22,.cls-23,.cls-24,.cls-25,.cls-26,.cls-27,.cls-28,.cls-29,.cls-3,.cls-30,.cls-31,.cls-32,.cls-33,.cls-34,.cls-35,.cls-36,.cls-37,.cls-38,.cls-39,.cls-4,.cls-40,.cls-41,.cls-42,.cls-43,.cls-44,.cls-45,.cls-46,.cls-47,.cls-48,.cls-49,.cls-5,.cls-50,.cls-51,.cls-52,.cls-53,.cls-54,.cls-55,.cls-56,.cls-6,.cls-7,.cls-8,.cls-9{stroke-width:5px;}.cls-2{fill:url(#Dégradé_sans_nom_16);stroke:url(#Dégradé_sans_nom_16-2);}.cls-3{fill:url(#Dégradé_sans_nom_16-3);stroke:url(#Dégradé_sans_nom_16-4);}.cls-4{fill:url(#Dégradé_sans_nom_16-5);stroke:url(#Dégradé_sans_nom_16-6);}.cls-5{fill:url(#Dégradé_sans_nom_16-7);stroke:url(#Dégradé_sans_nom_16-8);}.cls-6{fill:url(#Dégradé_sans_nom_16-9);stroke:url(#Dégradé_sans_nom_16-10);}.cls-7{fill:url(#Dégradé_sans_nom_16-11);stroke:url(#Dégradé_sans_nom_16-12);}.cls-8{fill:url(#Dégradé_sans_nom_16-13);stroke:url(#Dégradé_sans_nom_16-14);}.cls-9{fill:url(#Dégradé_sans_nom_16-15);stroke:url(#Dégradé_sans_nom_16-16);}.cls-10{fill:url(#Dégradé_sans_nom_16-17);stroke:url(#Dégradé_sans_nom_16-18);}.cls-11{fill:url(#Dégradé_sans_nom_16-19);stroke:url(#Dégradé_sans_nom_16-20);}.cls-12{fill:url(#Dégradé_sans_nom_16-21);stroke:url(#Dégradé_sans_nom_16-22);}.cls-13{fill:url(#Dégradé_sans_nom_16-23);stroke:url(#Dégradé_sans_nom_16-24);}.cls-14{fill:url(#Dégradé_sans_nom_16-25);stroke:url(#Dégradé_sans_nom_16-26);}.cls-15{fill:url(#Dégradé_sans_nom_16-27);stroke:url(#Dégradé_sans_nom_16-28);}.cls-16{fill:url(#Dégradé_sans_nom_16-29);stroke:url(#Dégradé_sans_nom_16-30);}.cls-17{fill:url(#Dégradé_sans_nom_16-31);stroke:url(#Dégradé_sans_nom_16-32);}.cls-18{fill:url(#Dégradé_sans_nom_16-33);stroke:url(#Dégradé_sans_nom_16-34);}.cls-19{fill:url(#Dégradé_sans_nom_16-35);stroke:url(#Dégradé_sans_nom_16-36);}.cls-20{fill:url(#Dégradé_sans_nom_16-37);stroke:url(#Dégradé_sans_nom_16-38);}.cls-21{fill:url(#Dégradé_sans_nom_16-39);stroke:url(#Dégradé_sans_nom_16-40);}.cls-22,.cls-23,.cls-24,.cls-25,.cls-26,.cls-27,.cls-28,.cls-29,.cls-30,.cls-31,.cls-32,.cls-33,.cls-34,.cls-35,.cls-36,.cls-37,.cls-38,.cls-39,.cls-40,.cls-41,.cls-42,.cls-43,.cls-44,.cls-45,.cls-46,.cls-47,.cls-48,.cls-49,.cls-50,.cls-51,.cls-52,.cls-53,.cls-54,.cls-56,.cls-60{fill:none;}.cls-22{stroke:url(#Dégradé_sans_nom_105);}.cls-23{stroke:url(#Dégradé_sans_nom_113);}.cls-24{stroke:url(#Dégradé_sans_nom_117);}.cls-25{stroke:url(#Dégradé_sans_nom_123);}.cls-26{stroke:url(#Dégradé_sans_nom_129);}.cls-27{stroke:url(#Dégradé_sans_nom_134);}.cls-28{stroke:url(#Dégradé_sans_nom_136);}.cls-29{stroke:url(#Dégradé_sans_nom_153);}.cls-30{stroke:url(#Dégradé_sans_nom_142);}.cls-31{stroke:url(#Dégradé_sans_nom_120);}.cls-32{stroke:url(#Dégradé_sans_nom_115);}.cls-33{stroke:url(#Dégradé_sans_nom_113-2);}.cls-34{stroke:url(#Dégradé_sans_nom_112);}.cls-35{stroke:url(#Dégradé_sans_nom_107);}.cls-36{stroke:url(#Dégradé_sans_nom_132);}.cls-37{stroke:url(#Dégradé_sans_nom_136-2);}.cls-38{stroke:url(#Dégradé_sans_nom_152);}.cls-39{stroke:url(#Dégradé_sans_nom_149);}.cls-40{stroke:url(#Dégradé_sans_nom_146);}.cls-41{stroke:url(#Dégradé_sans_nom_138);}.cls-42{stroke:url(#Dégradé_sans_nom_115-2);}.cls-43{stroke:url(#Dégradé_sans_nom_98);}.cls-44{stroke:url(#Dégradé_sans_nom_101);}.cls-45{stroke:url(#Dégradé_sans_nom_87);}.cls-46{stroke:url(#Dégradé_sans_nom_85);}.cls-47{stroke:url(#Dégradé_sans_nom_83);}.cls-48{stroke:url(#Dégradé_sans_nom_80);}.cls-49{stroke:url(#Dégradé_sans_nom_77);}.cls-50{stroke:url(#Dégradé_sans_nom_70);}.cls-51{stroke:url(#Dégradé_sans_nom_67);}.cls-52{stroke:url(#Dégradé_sans_nom_64);}.cls-53{stroke:url(#Dégradé_sans_nom_26);}.cls-54{stroke:url(#Dégradé_sans_nom_92);}.cls-55{fill:url(#Dégradé_sans_nom_16-41);stroke:url(#Dégradé_sans_nom_22);}.cls-56{stroke:url(#Dégradé_sans_nom_90);}.cls-57,.cls-58{fill:#fff;}.cls-57{stroke:#bdccd4;stroke-width:0.25px;}.cls-59{fill:#bdccd4;}.cls-61{fill:#eef1f4;}.cls-62{fill:#dee4e8;}.cls-63{fill:#dee5e9;}.cls-64{fill:#dde5e8;}.cls-65{fill:#dbe3e7;}</style><linearGradient id="Dégradé_sans_nom_16" x1="515.28" y1="35.16" x2="580.61" y2="35.16" gradientUnits="userSpaceOnUse"><stop offset="0" stop-color="#bdccd4"/><stop offset="0.24" stop-color="#b7c8d0"/><stop offset="0.55" stop-color="#a6bbc6"/><stop offset="0.91" stop-color="#8aa6b4"/><stop offset="1" stop-color="#82a0af"/></linearGradient><linearGradient id="Dégradé_sans_nom_16-2" x1="512.78" y1="35.16" x2="583.11" y2="35.16" xlink:href="#Dégradé_sans_nom_16"/><linearGradient id="Dégradé_sans_nom_16-3" x1="723.23" y1="109.19" x2="768.95" y2="109.19" xlink:href="#Dégradé_sans_nom_16"/><linearGradient id="Dégradé_sans_nom_16-4" x1="720.73" y1="109.19" x2="771.45" y2="109.19" xlink:href="#Dégradé_sans_nom_16"/><linearGradient id="Dégradé_sans_nom_16-5" x1="842.99" y1="301.9" x2="893.07" y2="301.9" xlink:href="#Dégradé_sans_nom_16"/><linearGradient id="Dégradé_sans_nom_16-6" x1="840.49" y1="301.9" x2="895.57" y2="301.9" xlink:href="#Dégradé_sans_nom_16"/><linearGradient id="Dégradé_sans_nom_16-7" x1="848.43" y1="419.48" x2="902.86" y2="419.48" xlink:href="#Dégradé_sans_nom_16"/><linearGradient id="Dégradé_sans_nom_16-8" x1="845.93" y1="419.48" x2="905.36" y2="419.48" xlink:href="#Dégradé_sans_nom_16"/><linearGradient id="Dégradé_sans_nom_16-9" x1="777.66" y1="506.57" x2="842.99" y2="506.57" xlink:href="#Dégradé_sans_nom_16"/><linearGradient id="Dégradé_sans_nom_16-10" x1="775.16" y1="506.57" x2="845.49" y2="506.57" xlink:href="#Dégradé_sans_nom_16"/><linearGradient id="Dégradé_sans_nom_16-11" x1="592.58" y1="635.04" x2="647.02" y2="635.04" xlink:href="#Dégradé_sans_nom_16"/><linearGradient id="Dégradé_sans_nom_16-12" x1="590.08" y1="635.04" x2="649.52" y2="635.04" xlink:href="#Dégradé_sans_nom_16"/><linearGradient id="Dégradé_sans_nom_16-13" x1="641.57" y1="731.94" x2="693.83" y2="731.94" xlink:href="#Dégradé_sans_nom_16"/><linearGradient id="Dégradé_sans_nom_16-14" x1="639.07" y1="731.94" x2="696.33" y2="731.94" xlink:href="#Dégradé_sans_nom_16"/><linearGradient id="Dégradé_sans_nom_16-15" x1="627.97" y1="399.88" x2="661.72" y2="399.88" xlink:href="#Dégradé_sans_nom_16"/><linearGradient id="Dégradé_sans_nom_16-16" x1="625.47" y1="399.88" x2="664.22" y2="399.88" xlink:href="#Dégradé_sans_nom_16"/><linearGradient id="Dégradé_sans_nom_16-17" x1="170.16" y1="109.19" x2="222.42" y2="109.19" xlink:href="#Dégradé_sans_nom_16"/><linearGradient id="Dégradé_sans_nom_16-18" x1="167.66" y1="109.19" x2="224.92" y2="109.19" xlink:href="#Dégradé_sans_nom_16"/><linearGradient id="Dégradé_sans_nom_16-19" x1="211.53" y1="362.86" x2="294.27" y2="362.86" xlink:href="#Dégradé_sans_nom_16"/><linearGradient id="Dégradé_sans_nom_16-20" x1="209.03" y1="362.86" x2="296.77" y2="362.86" xlink:href="#Dégradé_sans_nom_16"/><linearGradient id="Dégradé_sans_nom_16-21" x1="627.97" y1="289.92" x2="737.93" y2="289.92" xlink:href="#Dégradé_sans_nom_16"/><linearGradient id="Dégradé_sans_nom_16-22" x1="625.47" y1="289.92" x2="740.43" y2="289.92" xlink:href="#Dégradé_sans_nom_16"/><linearGradient id="Dégradé_sans_nom_16-23" x1="386.82" y1="218.07" x2="500.92" y2="218.07" xlink:href="#Dégradé_sans_nom_16"/><linearGradient id="Dégradé_sans_nom_16-24" x1="384.32" y1="218.07" x2="503.42" y2="218.07" xlink:href="#Dégradé_sans_nom_16"/><linearGradient id="Dégradé_sans_nom_16-25" x1="480.44" y1="392.26" x2="530.53" y2="392.26" xlink:href="#Dégradé_sans_nom_16"/><linearGradient id="Dégradé_sans_nom_16-26" x1="477.94" y1="392.26" x2="533.03" y2="392.26" xlink:href="#Dégradé_sans_nom_16"/><linearGradient id="Dégradé_sans_nom_16-27" x1="399" y1="558.83" x2="515.28" y2="558.83" xlink:href="#Dégradé_sans_nom_16"/><linearGradient id="Dégradé_sans_nom_16-28" x1="396.5" y1="558.83" x2="517.78" y2="558.83" xlink:href="#Dégradé_sans_nom_16"/><linearGradient id="Dégradé_sans_nom_16-29" x1="9.03" y1="289.92" x2="87.42" y2="289.92" xlink:href="#Dégradé_sans_nom_16"/><linearGradient id="Dégradé_sans_nom_16-30" x1="6.53" y1="289.92" x2="89.92" y2="289.92" xlink:href="#Dégradé_sans_nom_16"/><linearGradient id="Dégradé_sans_nom_16-31" x1="2.5" y1="428.19" x2="48.23" y2="428.19" xlink:href="#Dégradé_sans_nom_16"/><linearGradient id="Dégradé_sans_nom_16-32" x1="0" y1="428.19" x2="50.73" y2="428.19" xlink:href="#Dégradé_sans_nom_16"/><linearGradient id="Dégradé_sans_nom_16-33" x1="83.06" y1="512.02" x2="117.9" y2="512.02" xlink:href="#Dégradé_sans_nom_16"/><linearGradient id="Dégradé_sans_nom_16-34" x1="80.56" y1="512.02" x2="120.4" y2="512.02" xlink:href="#Dégradé_sans_nom_16"/><linearGradient id="Dégradé_sans_nom_16-35" x1="185.95" y1="525.08" x2="229.5" y2="525.08" xlink:href="#Dégradé_sans_nom_16"/><linearGradient id="Dégradé_sans_nom_16-36" x1="183.45" y1="525.08" x2="232" y2="525.08" xlink:href="#Dégradé_sans_nom_16"/><linearGradient id="Dégradé_sans_nom_16-37" x1="279.14" y1="601.84" x2="309.41" y2="601.84" xlink:href="#Dégradé_sans_nom_16"/><linearGradient id="Dégradé_sans_nom_16-38" x1="276.64" y1="601.84" x2="311.91" y2="601.84" xlink:href="#Dégradé_sans_nom_16"/><linearGradient id="Dégradé_sans_nom_16-39" x1="127.7" y1="331.65" x2="158.19" y2="331.65" xlink:href="#Dégradé_sans_nom_16"/><linearGradient id="Dégradé_sans_nom_16-40" x1="125.2" y1="331.65" x2="160.69" y2="331.65" xlink:href="#Dégradé_sans_nom_16"/><linearGradient id="Dégradé_sans_nom_105" x1="221.32" y1="73.23" x2="516.7" y2="73.23" gradientUnits="userSpaceOnUse"><stop offset="0" stop-color="#8ba6b4"/><stop offset="0.26" stop-color="#91abb8"/><stop offset="0.61" stop-color="#a2b7c3"/><stop offset="1" stop-color="#bdccd4"/></linearGradient><linearGradient id="Dégradé_sans_nom_113" x1="577.72" y1="72.97" x2="726.27" y2="72.97" gradientUnits="userSpaceOnUse"><stop offset="0" stop-color="#86a3b1"/><stop offset="0.26" stop-color="#8ca7b5"/><stop offset="0.6" stop-color="#9db4bf"/><stop offset="1" stop-color="#b9c9d1"/><stop offset="1" stop-color="#b9c9d1"/></linearGradient><linearGradient id="Dégradé_sans_nom_117" x1="757.17" y1="203.8" x2="858.47" y2="203.8" gradientUnits="userSpaceOnUse"><stop offset="0" stop-color="#9eb5c1"/><stop offset="0.48" stop-color="#a4b9c4"/><stop offset="1" stop-color="#b1c3cc"/></linearGradient><linearGradient id="Dégradé_sans_nom_123" x1="865.54" y1="359.6" x2="878.13" y2="359.6" gradientUnits="userSpaceOnUse"><stop offset="0" stop-color="#a4bac5"/><stop offset="1" stop-color="#a5bac5"/></linearGradient><linearGradient id="Dégradé_sans_nom_129" x1="830.4" y1="462.93" x2="864.59" y2="462.93" gradientUnits="userSpaceOnUse"><stop offset="0" stop-color="#97b0bc"/><stop offset="0.34" stop-color="#9db4c0"/><stop offset="0.79" stop-color="#aec1cb"/><stop offset="1" stop-color="#b8c8d1"/></linearGradient><linearGradient id="Dégradé_sans_nom_134" x1="661.21" y1="407.68" x2="849.63" y2="407.68" gradientUnits="userSpaceOnUse"><stop offset="0" stop-color="#87a4b2"/><stop offset="0.25" stop-color="#8da8b6"/><stop offset="0.58" stop-color="#9eb5c0"/><stop offset="0.96" stop-color="#bacad2"/><stop offset="1" stop-color="#bdccd4"/></linearGradient><linearGradient id="Dégradé_sans_nom_136" x1="656.14" y1="449.46" x2="784.88" y2="449.46" gradientUnits="userSpaceOnUse"><stop offset="0" stop-color="#8ca8b6"/><stop offset="0.28" stop-color="#92acba"/><stop offset="0.64" stop-color="#a3b9c4"/><stop offset="1" stop-color="#bacad2"/></linearGradient><linearGradient id="Dégradé_sans_nom_153" x1="646.57" y1="587.04" x2="802.84" y2="587.04" gradientUnits="userSpaceOnUse"><stop offset="0" stop-color="#85a2b1"/><stop offset="0.3" stop-color="#8ba7b5"/><stop offset="0.69" stop-color="#9cb3bf"/><stop offset="1" stop-color="#aec1cb"/></linearGradient><linearGradient id="Dégradé_sans_nom_142" x1="514.48" y1="532.29" x2="778.64" y2="532.29" gradientUnits="userSpaceOnUse"><stop offset="0" stop-color="#84a1b0"/><stop offset="0.24" stop-color="#8aa6b4"/><stop offset="0.56" stop-color="#9bb2be"/><stop offset="0.93" stop-color="#b7c7d0"/><stop offset="1" stop-color="#bdccd4"/></linearGradient><linearGradient id="Dégradé_sans_nom_120" x1="737.34" y1="298.35" x2="843.19" y2="298.35" gradientUnits="userSpaceOnUse"><stop offset="0" stop-color="#83a1b0"/><stop offset="0.24" stop-color="#89a5b4"/><stop offset="0.56" stop-color="#9ab2be"/><stop offset="0.92" stop-color="#b6c7cf"/><stop offset="1" stop-color="#bdccd4"/></linearGradient><linearGradient id="Dégradé_sans_nom_115" x1="703.38" y1="185.23" x2="740.32" y2="185.23" gradientUnits="userSpaceOnUse"><stop offset="0" stop-color="#9eb5c1"/><stop offset="0.5" stop-color="#a4b9c5"/><stop offset="1" stop-color="#b0c2cc"/></linearGradient><linearGradient id="Dégradé_sans_nom_113-2" x1="495.27" y1="260.69" x2="629.56" y2="260.69" xlink:href="#Dégradé_sans_nom_113"/><linearGradient id="Dégradé_sans_nom_112" x1="467.76" y1="115.53" x2="534.31" y2="115.53" gradientUnits="userSpaceOnUse"><stop offset="0" stop-color="#97b0bc"/><stop offset="0.33" stop-color="#9db4c0"/><stop offset="0.78" stop-color="#aec1ca"/><stop offset="1" stop-color="#b9c9d1"/></linearGradient><linearGradient id="Dégradé_sans_nom_107" x1="218.42" y1="159.25" x2="391.77" y2="159.25" gradientUnits="userSpaceOnUse"><stop offset="0" stop-color="#86a3b2"/><stop offset="0.25" stop-color="#8ca7b6"/><stop offset="0.58" stop-color="#9db4c0"/><stop offset="0.96" stop-color="#b9c9d1"/><stop offset="1" stop-color="#bccbd3"/></linearGradient><linearGradient id="Dégradé_sans_nom_132" x1="648.2" y1="363.39" x2="670.18" y2="363.39" gradientUnits="userSpaceOnUse"><stop offset="0" stop-color="#a8bcc7"/><stop offset="0.64" stop-color="#aec0ca"/><stop offset="1" stop-color="#b4c5ce"/></linearGradient><linearGradient id="Dégradé_sans_nom_136-2" x1="529.87" y1="397.95" x2="628.07" y2="397.95" xlink:href="#Dégradé_sans_nom_136"/><linearGradient id="Dégradé_sans_nom_152" x1="627.57" y1="683.87" x2="660.98" y2="683.87" gradientUnits="userSpaceOnUse"><stop offset="0" stop-color="#99b1bd"/><stop offset="0.45" stop-color="#9fb6c1"/><stop offset="1" stop-color="#aec1cb"/></linearGradient><linearGradient id="Dégradé_sans_nom_149" x1="494.74" y1="659.22" x2="648.08" y2="659.22" gradientUnits="userSpaceOnUse"><stop offset="0" stop-color="#8ea9b7"/><stop offset="0.29" stop-color="#94adbb"/><stop offset="0.67" stop-color="#a5bac5"/><stop offset="1" stop-color="#b9c9d2"/></linearGradient><linearGradient id="Dégradé_sans_nom_146" x1="507.74" y1="606.78" x2="594.58" y2="606.78" gradientUnits="userSpaceOnUse"><stop offset="0" stop-color="#86a3b2"/><stop offset="0.25" stop-color="#8ca7b6"/><stop offset="0.57" stop-color="#9db4c0"/><stop offset="0.95" stop-color="#b9c9d1"/><stop offset="1" stop-color="#bdccd4"/></linearGradient><linearGradient id="Dégradé_sans_nom_138" x1="468.64" y1="459.5" x2="502.17" y2="459.5" gradientUnits="userSpaceOnUse"><stop offset="0" stop-color="#9fb6c1"/><stop offset="0.47" stop-color="#a5bac5"/><stop offset="1" stop-color="#b3c4ce"/></linearGradient><linearGradient id="Dégradé_sans_nom_115-2" x1="454.83" y1="321.3" x2="498.41" y2="321.3" xlink:href="#Dégradé_sans_nom_115"/><linearGradient id="Dégradé_sans_nom_98" x1="283.88" y1="294.01" x2="398.63" y2="294.01" gradientUnits="userSpaceOnUse"><stop offset="0" stop-color="#8ba6b4"/><stop offset="1" stop-color="#bccbd4"/></linearGradient><linearGradient id="Dégradé_sans_nom_101" x1="280.23" y1="457.83" x2="412.84" y2="457.83" gradientUnits="userSpaceOnUse"><stop offset="0" stop-color="#8ca8b5"/><stop offset="0.27" stop-color="#92acb9"/><stop offset="0.63" stop-color="#a3b9c3"/><stop offset="1" stop-color="#bccbd3"/></linearGradient><linearGradient id="Dégradé_sans_nom_87" x1="308.49" y1="585.8" x2="401.29" y2="585.8" gradientUnits="userSpaceOnUse"><stop offset="0" stop-color="#8ea9b6"/><stop offset="0.27" stop-color="#94adba"/><stop offset="0.63" stop-color="#a5bac5"/><stop offset="1" stop-color="#bdccd4"/></linearGradient><linearGradient id="Dégradé_sans_nom_85" x1="220.72" y1="566.4" x2="284.77" y2="566.4" gradientUnits="userSpaceOnUse"><stop offset="0" stop-color="#8ea9b6"/><stop offset="0.3" stop-color="#94adba"/><stop offset="0.7" stop-color="#a5bac4"/><stop offset="1" stop-color="#b6c6cf"/></linearGradient><linearGradient id="Dégradé_sans_nom_83" x1="212.34" y1="453.15" x2="241.38" y2="453.15" gradientUnits="userSpaceOnUse"><stop offset="0" stop-color="#99b1bd"/><stop offset="0.44" stop-color="#9fb6c1"/><stop offset="1" stop-color="#afc2cb"/></linearGradient><linearGradient id="Dégradé_sans_nom_80" x1="116.82" y1="519.04" x2="186.04" y2="519.04" gradientUnits="userSpaceOnUse"><stop offset="0" stop-color="#8aa6b4"/><stop offset="0.26" stop-color="#90aab8"/><stop offset="0.6" stop-color="#a1b7c2"/><stop offset="1" stop-color="#bdccd4"/><stop offset="1" stop-color="#bdccd4"/></linearGradient><linearGradient id="Dégradé_sans_nom_77" x1="102.1" y1="420.82" x2="142.21" y2="420.82" gradientUnits="userSpaceOnUse"><stop offset="0" stop-color="#a7bcc6"/><stop offset="0.72" stop-color="#adc0ca"/><stop offset="1" stop-color="#b1c3cc"/></linearGradient><linearGradient id="Dégradé_sans_nom_70" x1="33.1" y1="474.74" x2="89.17" y2="474.74" gradientUnits="userSpaceOnUse"><stop offset="0" stop-color="#96afbc"/><stop offset="0.34" stop-color="#9cb4c0"/><stop offset="0.79" stop-color="#adc0ca"/><stop offset="1" stop-color="#b7c8d0"/></linearGradient><linearGradient id="Dégradé_sans_nom_67" x1="43.97" y1="378.79" x2="131.84" y2="378.79" gradientUnits="userSpaceOnUse"><stop offset="0" stop-color="#90abb8"/><stop offset="0.3" stop-color="#96afbc"/><stop offset="0.7" stop-color="#a7bcc6"/><stop offset="1" stop-color="#b8c9d1"/></linearGradient><linearGradient id="Dégradé_sans_nom_64" x1="11.96" y1="379.08" x2="54.02" y2="353.81" gradientUnits="userSpaceOnUse"><stop offset="0" stop-color="#9db4c0"/><stop offset="0.5" stop-color="#a3b8c4"/><stop offset="1" stop-color="#afc1cb"/></linearGradient><linearGradient id="Dégradé_sans_nom_26" x1="82.14" y1="316.93" x2="129.71" y2="316.93" gradientUnits="userSpaceOnUse"><stop offset="0" stop-color="#87a4b2"/><stop offset="0.25" stop-color="#8da8b6"/><stop offset="0.59" stop-color="#9eb5c0"/><stop offset="0.97" stop-color="#bac9d2"/><stop offset="1" stop-color="#bccbd3"/></linearGradient><linearGradient id="Dégradé_sans_nom_92" x1="156.97" y1="343.24" x2="214" y2="343.24" gradientUnits="userSpaceOnUse"><stop offset="0" stop-color="#87a4b2"/><stop offset="0.25" stop-color="#8da9b6"/><stop offset="0.59" stop-color="#9eb5c1"/><stop offset="0.97" stop-color="#bacad2"/><stop offset="1" stop-color="#bcccd4"/></linearGradient><linearGradient id="Dégradé_sans_nom_16-41" x1="69.06" y1="192.8" x2="179.11" y2="192.8" xlink:href="#Dégradé_sans_nom_16"/><linearGradient id="Dégradé_sans_nom_22" x1="16451.06" y1="16581.04" x2="16564.91" y2="16581.04" gradientTransform="translate(16632.07 16773.84) rotate(180)" gradientUnits="userSpaceOnUse"><stop offset="0" stop-color="#bacad2"/><stop offset="0.31" stop-color="#b4c6ce"/><stop offset="0.73" stop-color="#a3b9c4"/><stop offset="1" stop-color="#94aebb"/></linearGradient><linearGradient id="Dégradé_sans_nom_90" x1="144.49" y1="226.13" x2="198.7" y2="226.13" gradientUnits="userSpaceOnUse"><stop offset="0" stop-color="#9ab2be"/><stop offset="0.45" stop-color="#a0b7c2"/><stop offset="1" stop-color="#afc2cb"/></linearGradient><symbol id="Nouveau_symbole" data-name="Nouveau symbole" viewBox="0 0 905.37 760.57"><path class="cls-1" d="M478.84,208.09l-8.53-8.53L456.55,185.8l-5.28-5.28a4.37,4.37,0,0,1-4,3,4.07,4.07,0,0,1-2.3-.7l-5.75,5.75-11,11-4.76,4.76-23.26,23.25L439,266.41l0,0,49.09-49.09ZM439,229.8a3.35,3.35,0,1,1-3.53,3.25A3.41,3.41,0,0,1,439,229.8Zm31.45-25.65a3.27,3.27,0,0,1,3.18,3.37,3.28,3.28,0,1,1-6.56-.19A3.3,3.3,0,0,1,470.45,204.15Z"/><circle class="cls-2" cx="547.94" cy="35.16" r="32.66"/><circle class="cls-3" cx="746.09" cy="109.19" r="22.86"/><circle class="cls-4" cx="868.03" cy="301.9" r="25.04"/><circle class="cls-5" cx="875.65" cy="419.48" r="27.22"/><circle class="cls-6" cx="810.32" cy="506.57" r="32.66"/><circle class="cls-7" cx="619.8" cy="635.04" r="27.22"/><circle class="cls-8" cx="667.7" cy="731.94" r="26.13"/><circle class="cls-9" cx="644.84" cy="399.88" r="16.88"/><circle class="cls-10" cx="196.29" cy="109.19" r="26.13"/><circle class="cls-11" cx="252.9" cy="362.86" r="41.37"/><circle class="cls-12" cx="682.95" cy="289.92" r="54.98"/><circle class="cls-13" cx="443.87" cy="218.07" r="57.05"/><circle class="cls-14" cx="505.49" cy="392.26" r="25.04"/><circle class="cls-15" cx="457.14" cy="558.83" r="58.14"/><circle class="cls-16" cx="48.23" cy="289.92" r="39.19"/><circle class="cls-17" cx="25.36" cy="428.19" r="22.86"/><circle class="cls-18" cx="100.48" cy="512.02" r="17.42"/><circle class="cls-19" cx="207.72" cy="525.08" r="21.77"/><circle class="cls-20" cx="294.27" cy="601.84" r="15.14"/><circle class="cls-21" cx="142.94" cy="331.65" r="15.24"/><line class="cls-22" x1="221.82" y1="103.64" x2="516.2" y2="42.82"/><line class="cls-23" x1="578.57" y1="46.53" x2="725.43" y2="99.41"/><line class="cls-24" x1="759.27" y1="127.87" x2="856.37" y2="279.73"/><line class="cls-25" x1="868.03" y1="326.94" x2="875.65" y2="392.26"/><line class="cls-26" x1="862.61" y1="443.37" x2="832.38" y2="482.49"/><line class="cls-27" x1="661.32" y1="403.5" x2="849.52" y2="411.86"/><line class="cls-28" x1="783.58" y1="487.83" x2="657.44" y2="411.08"/><polyline class="cls-29" points="647.02 635.04 758.97 614.72 800.64 537.77"/><line class="cls-30" x1="778.27" y1="512.87" x2="514.84" y2="551.71"/><line class="cls-31" x1="843.16" y1="298.97" x2="737.37" y2="297.72"/><line class="cls-32" x1="737.93" y1="130.55" x2="705.78" y2="239.91"/><line class="cls-33" x1="495.97" y1="241.3" x2="628.86" y2="280.09"/><line class="cls-34" x1="532.17" y1="63.76" x2="469.9" y2="167.31"/><line class="cls-35" x1="219.44" y1="121.31" x2="390.76" y2="197.19"/><line class="cls-36" x1="667.88" y1="342.8" x2="650.51" y2="383.98"/><line class="cls-37" x1="628.07" y1="397.97" x2="529.87" y2="397.93"/><line class="cls-38" x1="658.85" y1="707.35" x2="629.69" y2="660.4"/><line class="cls-39" x1="496.26" y1="601.85" x2="646.56" y2="716.59"/><line class="cls-40" x1="508.87" y1="585.37" x2="593.45" y2="628.19"/><line class="cls-41" x1="499.8" y1="416.64" x2="471.01" y2="502.36"/><line class="cls-42" x1="457.14" y1="273.55" x2="496.09" y2="369.05"/><line class="cls-43" x1="397.1" y1="250.73" x2="285.41" y2="337.29"/><line class="cls-44" x1="411.05" y1="523.4" x2="282.01" y2="392.26"/><line class="cls-45" x1="400.58" y1="572.27" x2="309.2" y2="599.34"/><line class="cls-46" x1="222.32" y1="541.24" x2="283.18" y2="591.57"/><line class="cls-47" x1="238.95" y1="401.82" x2="214.77" y2="504.48"/><line class="cls-48" x1="185.95" y1="520.25" x2="116.9" y2="517.83"/><line class="cls-49" x1="139.78" y1="346.57" x2="104.53" y2="495.08"/><line class="cls-50" x1="34.85" y1="448.99" x2="87.42" y2="500.5"/><line class="cls-51" x1="130.15" y1="339.92" x2="45.66" y2="417.67"/><line class="cls-52" x1="35.51" y1="326.99" x2="30.48" y2="405.9"/><line class="cls-53" x1="83.06" y1="307.87" x2="128.79" y2="325.99"/><line class="cls-54" x1="157.61" y1="335.79" x2="213.36" y2="350.68"/><line class="cls-55" x1="179.11" y1="128.87" x2="69.06" y2="256.72"/><line class="cls-56" x1="196.29" y1="135.32" x2="146.9" y2="316.93"/><path class="cls-57" d="M684.63,722c-.63,0-1.24,0-1.85,0H663.05a3.33,3.33,0,0,1-.45,0c-.7-.75-.53-1.68-.92-2.44-.21-.44-.24-1-.44-1.5a.9.9,0,0,0-1-.68c-.5,0-1,0-1.52,0-1.72,0-3.46,0-5.18,0a1,1,0,0,0-.9.42,6.49,6.49,0,0,0-.45,1.35c-.06.17,0,.41-.11.53a2.15,2.15,0,0,0-.34,1.17,2.87,2.87,0,0,1-.17.59,2.63,2.63,0,0,0-.11,1.75l.44.09c.8.09,1,.25,1,1q0,8,0,16.06a1.09,1.09,0,0,1-.49,1l-1.14.71a1.08,1.08,0,0,0-.61,1c0,.8,0,1.61,0,2.42s.27,1.16,1.15,1.16h10.24c.75,0,1-.34,1-1.08s0-1.7,0-2.55a1.07,1.07,0,0,0-.54-1c-.24-.16-.53-.25-.77-.41-.49-.32-.94-.63-.93-1.37,0-3,0-6.08,0-9.12,0-1,0-2,0-3a.69.69,0,0,1,.73-.81,5,5,0,0,1,.55,0h15.85c.71,0,1.43.07,2.14,0,.92,0,1.83-.11,2.75-.17a.52.52,0,0,0,.53-.35c.13-.36.28-.73.39-1.09.18-.58.34-1.17.51-1.75a1.92,1.92,0,0,1,.12-.25A2.06,2.06,0,0,0,684.63,722Zm-31.37-1.65c.12-.15.1-.39.14-.6.12-.83.32-1,1.17-1h4.77c.66,0,.78.07,1,.63s.32,1,.44,1.5a1.25,1.25,0,0,1,0,1H653A2,2,0,0,1,653.26,720.34Zm8.14,22.46a.52.52,0,0,1,.2.39c0,.62,0,1.24,0,1.84a82.41,82.41,0,0,1-9.43,0c0-.62,0-1.26,0-1.9a.46.46,0,0,1,.2-.33c.35-.2.73-.34,1.08-.53a1,1,0,0,0,.67-.93c0-.6,0-1.2,0-1.81V724.37c0-.2,0-.41,0-.61,0-.44.12-.55.54-.56,1.55,0,3.09,0,4.65,0a.64.64,0,0,1,.18.06c.19.51.24,16.44.06,17.44-1.24.13-2.47-.05-3.72.12v1a1.6,1.6,0,0,0,1,.18,13,13,0,0,0,1.87,0A4.24,4.24,0,0,1,661.4,742.8Zm3.33-17.12a.62.62,0,0,1-.41.18c-.94,0-1.89,0-2.82,0-.42,0-.57-.2-.57-.62s0-.87,0-1.31a.72.72,0,0,1,.69-.78h4.83a1.76,1.76,0,0,1,.22.07.62.62,0,0,1-.18.72C665.89,724.53,665.33,725.12,664.73,725.68Zm9.68-1.42c-.45.47-1,.84-1.45,1.31a1,1,0,0,1-.72.33h-5.11a2.41,2.41,0,0,1-.52-.15c.8-.77,1.51-1.48,2.25-2.17a1.28,1.28,0,0,1,.92-.4h4.63a3.71,3.71,0,0,1,.38,0C675.16,723.78,674.65,724,674.41,724.26Zm8.53-.17a15.67,15.67,0,0,0-.61,1.75,53.7,53.7,0,0,1-7.49-.1c.3-.33.58-.66.89-1,.48-.46,1-.86,1.48-1.34a.73.73,0,0,1,.6-.26c1.54,0,3.08,0,4.63,0C683.12,723.18,683.22,723.45,682.94,724.09Z"/><path class="cls-57" d="M682.94,724.09a15.67,15.67,0,0,0-.61,1.75,53.7,53.7,0,0,1-7.49-.1c.3-.33.58-.66.89-1,.48-.46,1-.86,1.48-1.34a.73.73,0,0,1,.6-.26c1.54,0,3.08,0,4.63,0C683.12,723.18,683.22,723.45,682.94,724.09Z"/><path class="cls-57" d="M666.5,724c-.61.54-1.17,1.13-1.77,1.69a.62.62,0,0,1-.41.18c-.94,0-1.89,0-2.82,0-.42,0-.57-.2-.57-.62s0-.87,0-1.31a.72.72,0,0,1,.69-.78h4.83a1.76,1.76,0,0,1,.22.07A.62.62,0,0,1,666.5,724Z"/><path class="cls-57" d="M660.73,721.92H653a2,2,0,0,1,.22-1.58c.12-.15.1-.39.14-.6.12-.83.32-1,1.17-1h4.77c.66,0,.78.07,1,.63s.32,1,.44,1.5A1.25,1.25,0,0,1,660.73,721.92Z"/><path class="cls-57" d="M661.61,745a82.41,82.41,0,0,1-9.43,0c0-.62,0-1.26,0-1.9a.46.46,0,0,1,.2-.33c.35-.2.73-.34,1.08-.53a1,1,0,0,0,.67-.93c0-.6,0-1.2,0-1.81V724.37c0-.2,0-.41,0-.61,0-.44.12-.55.54-.56,1.55,0,3.09,0,4.65,0a.64.64,0,0,1,.18.06c.19.51.24,16.44.06,17.44-1.24.13-2.47-.05-3.72.12v1a1.6,1.6,0,0,0,1,.18,13,13,0,0,0,1.87,0,4.24,4.24,0,0,1,2.63.78.52.52,0,0,1,.2.39C661.64,743.81,661.61,744.43,661.61,745Z"/><path class="cls-58" d="M563.6,34.65l-1,.06a1.83,1.83,0,0,1-.11-.35c-.13-1-.25-2.07-.37-3.11-.05-.37,0-.78-.32-1.07a.39.39,0,0,1-.06-.2,7.66,7.66,0,0,0-.75-2.17,12.94,12.94,0,0,0-.82-1.62,16,16,0,0,0-3-3.68,22.42,22.42,0,0,0-3.34-2.37,4.58,4.58,0,0,0-1-.39,12.52,12.52,0,0,1-1.66-.59c-.81-.42-1.73-.25-2.55-.61a3.54,3.54,0,0,0-1.35-.09c-.62,0-1.25,0-1.87,0a2.87,2.87,0,0,0-1.6.27.91.91,0,0,1-.41.08,11,11,0,0,0-3.4,1.09c-.7.29-1.33.68-2,1a4.19,4.19,0,0,0-.54.4,15.35,15.35,0,0,0-2.82,2.51c-.55.66-.95,1.45-1.47,2.13a16.07,16.07,0,0,0-1.42,2.69,9.82,9.82,0,0,0-.56,2c-.1.39-.19.79-.27,1.18a3.38,3.38,0,0,0-.1.7c0,1,0,2,0,2.94A2.64,2.64,0,0,0,531.1,37a.67.67,0,0,1,.07.35,10.76,10.76,0,0,0,1.36,4.14,15.85,15.85,0,0,0,4.2,5.06c.87.73,1.87,1.22,2.79,1.85.43.3,1.06.3,1.5.6.6.4,1.35.25,1.92.67a.39.39,0,0,0,.2.06c1.41,0,2.78.52,4.2.33a5,5,0,0,0,.61-.16,1.2,1.2,0,0,1,1.3.3.43.43,0,0,1,0,.63,1.19,1.19,0,0,1-.91.5h-3.88a2.78,2.78,0,0,1-.55-.14c-.18-.06-.36-.19-.54-.17a6,6,0,0,1-2.14-.48,24.56,24.56,0,0,1-2.42-1.05,13.69,13.69,0,0,1-3.26-2.16,16,16,0,0,1-2.14-2.13,18.55,18.55,0,0,1-2.54-4,14.67,14.67,0,0,0-.56-1.66c-.45-.66-.21-1.46-.62-2.09a1.12,1.12,0,0,1-.07-.42,22.91,22.91,0,0,1,0-5.3,7.29,7.29,0,0,1,.62-2.52c.23-.42.22-.95.47-1.41s.54-1.28.88-1.9a17.38,17.38,0,0,1,1.23-2A8,8,0,0,1,534,22.71c.86-.81,1.7-1.64,2.62-2.38A14.69,14.69,0,0,1,538.71,19c.41-.23.91-.29,1.31-.53s1.2-.35,1.73-.7a.86.86,0,0,1,.27-.09c.82-.13,1.63-.31,2.45-.39s1.68-.06,2.51-.06a10.43,10.43,0,0,1,1.94.09,11.92,11.92,0,0,1,2.81.64c.52.24,1.1.37,1.64.57a4.88,4.88,0,0,1,.9.41,36.87,36.87,0,0,1,3.15,2,14.9,14.9,0,0,1,2.18,2.17,15,15,0,0,1,1.74,2.49,15.17,15.17,0,0,1,1.15,2.45c.21.6.46,1.18.69,1.78a1.48,1.48,0,0,1,.07.42,14.91,14.91,0,0,0,.31,1.75A15.32,15.32,0,0,1,563.6,34.65Z"/><path class="cls-58" d="M553.26,40.06c1.16-.19,12-.15,12.79,0l.1,1.9a1.16,1.16,0,0,0,.94-.17c.83-.53,1.68-1,2.55-1.47S570.42,40,571,40a3.37,3.37,0,0,1,.31,1.57c0,2.49,0,5,0,7.47a4.22,4.22,0,0,1,0,.71.86.86,0,0,1-1.45.61c-.95-.63-1.92-1.24-2.89-1.83a2.42,2.42,0,0,0-.78-.14c0,.51,0,.94,0,1.36,0,.68-.11.79-.79.83s-1.34,0-2,0c-3,0-5.93,0-8.89,0-.38,0-.75-.1-1.17-.15,0-.34-.08-.62-.08-.9q0-4.24,0-8.47C553.17,40.77,553.23,40.4,553.26,40.06ZM569.8,42a2.11,2.11,0,0,0-.58.14c-.82.48-1.61,1-2.43,1.47-.3.18-.64.3-.94.48a.63.63,0,0,1-.72,0c-.29-.16-.28-.43-.29-.68,0-.48,0-1,0-1.43s-.25-.79-.85-.79h-6.68c-.71,0-1.43,0-2.15,0-.47,0-.64.17-.7.63a2,2,0,0,0,0,.43q0,3.12,0,6.24c0,.8.08.87.85.88H564a5.84,5.84,0,0,0,.78-.11,19.56,19.56,0,0,1,.16-2.71,1.44,1.44,0,0,1,1.48.31,11.51,11.51,0,0,0,1.78,1.07c.49.23.9.72,1.59.57Z"/><path class="cls-58" d="M544.15,44.35a5.18,5.18,0,0,1-.59,0,.48.48,0,0,1-.55-.51c0-.24,0-.48,0-.72q0-8,0-15.92c0-.3,0-.61,0-.87a10.15,10.15,0,0,1,4.78-.7c.31,0,.62.06.93.06a4.64,4.64,0,0,1,3,1.31,3.79,3.79,0,0,1,1.34,2.68,20.85,20.85,0,0,1,0,2.5,4.41,4.41,0,0,1-.9,2.11,6.39,6.39,0,0,1-2.36,1.83l-.07,0c-1,0-2,.63-3.08.43a4.81,4.81,0,0,1-.54-.16,3.4,3.4,0,0,0-1.91-.08c0,.23,0,.48,0,.73,0,2,0,4,0,6C544.21,43.48,544.17,43.88,544.15,44.35Zm.08-16.73c0,.06,0,.21,0,.35v6a1,1,0,0,0,1,1.09c.91.05,1.82,0,2.72.08a4,4,0,0,0,4-3.69,8.67,8.67,0,0,0,0-1.14,3.25,3.25,0,0,0-1-2.19,2.15,2.15,0,0,0-1.5-.83c-.75-.57-1.64-.33-2.48-.38-.24,0-.48,0-.71,0A2.37,2.37,0,0,0,544.23,27.62Z"/><path class="cls-58" d="M556.47,44.42V43.33a18.24,18.24,0,0,1,3.47-.06l.06,1.1A18.9,18.9,0,0,1,556.47,44.42Z"/><path class="cls-57" d="M834.2,507.11a22.88,22.88,0,0,0-2.47.22c-.71.11-1,.06-1.38-.52-.7-1.07-1.34-2.16-2.07-3.2a8.08,8.08,0,0,0-2.37-2.76,3.1,3.1,0,0,0-1.52-.62c-1.21,0-2.42-.06-3.63-.06H805.83c-.42,0-.84.06-1.21.09a1.3,1.3,0,0,0-.07.56c0,.48.42.65,1,.62H823c.3,0,.61,0,.92,0a2.61,2.61,0,0,1,1.92,1c.71.87,1.32,1.82,2,2.75s1.31,1.91,1.87,2.91a1,1,0,0,0,1.1.55l2.85-.09c.51-.09,1.22.16,1,.79-.12.31-.28.56-.72.54-.66,0-1.33,0-2,0a.68.68,0,0,0-.75.74c0,.24,0,.47,0,.71,0,.63-.15.84-.78.93a7.58,7.58,0,0,0-.83.15c-.31.08-.62.21-.93.28a11.14,11.14,0,0,1-1.88.52,2.44,2.44,0,0,0-.71.26c-.42.19-.88.4-.95.87a9.42,9.42,0,0,0,0,1.84.64.64,0,0,0,.25.41,2.12,2.12,0,0,0,1.41.54,7.63,7.63,0,0,1,1.35,0,6.55,6.55,0,0,1,2.19.43c0,.71-.46,1.22-.39,1.92,0,.23-.06.46-.1.74-2.26.21-4.51.05-6.78.09-.22,0-.45-.06-.78-.1a10.58,10.58,0,0,1,.23-1.08,1.92,1.92,0,0,0-.28-2.11,2.17,2.17,0,0,0-1.67-.61c-3.77,0-7.54,0-11.31,0a7.13,7.13,0,0,0-1.95.28,1.55,1.55,0,0,0-.87,1.94,2.82,2.82,0,0,1,.15,1.57,61,61,0,0,1-7.17,0,4.28,4.28,0,0,1-.52-2.18c-.07-.56,0-.68.58-.74a23.29,23.29,0,0,1,2.76-.2,1.73,1.73,0,0,0,1.71-1.07,1.88,1.88,0,0,0-1.22-2.65c-.54-.13-1.09-.24-1.61-.42a15.87,15.87,0,0,0-2.61-.75.85.85,0,0,1-.75-.92c0-.31,0-.62,0-.92a.5.5,0,0,0-.54-.53c-.62,0-1.24,0-1.85,0-.28,0-.55,0-.86,0v-1.18a7.37,7.37,0,0,1,.78-.08c.47,0,.95,0,1.42,0s1.19,0,1.78,0c.42,0,.59-.23.57-.64a2.35,2.35,0,0,0-.14-.48,3.19,3.19,0,0,0-.57-.09,8.86,8.86,0,0,1-2.11-.23,5,5,0,0,0-1.49-.1,1.58,1.58,0,0,0-1.39.81,2.91,2.91,0,0,0-.28,1.16c-.07,1,.36,2.22,1.74,2.09a5.63,5.63,0,0,1,.71,0c1.76.34.88,3.34,1.44,4.73a3,3,0,0,1,.38,1.48,1.92,1.92,0,0,0,.1.77c.48.9.13,2,.67,2.87a15.56,15.56,0,0,0,.43,2.79,1.62,1.62,0,0,0,1.59,1.41c1.06,0,2.13,0,3.2,0a1.6,1.6,0,0,0,1.65-1.69c.09-1-.4-2.18,1.12-1.95H823.2c.54,0,.66.12.7.66a3.09,3.09,0,0,1,0,.43,4,4,0,0,0,.27,1.55,1.35,1.35,0,0,0,1.36,1c1.16,0,2.32,0,3.48,0a1.21,1.21,0,0,0,1.25-1.17.88.88,0,0,1,.09-.41,2.53,2.53,0,0,0,.34-1.49,2.74,2.74,0,0,1,.08-.64c.37-1.19.43-2.45.74-3.65.22-.85.27-1.73.5-2.56.15-.53.18-1.06.29-1.59a21.08,21.08,0,0,0,.43-2.35s0-.08.08-.13a1.33,1.33,0,0,1,.19-.05h.79c.26,0,.52,0,.77,0a1.44,1.44,0,0,0,1.34-1.53c0-.26,0-.52,0-.78A1.77,1.77,0,0,0,834.2,507.11Zm-36,8.28c-.08-.57-.08-1.16-.12-1.91l4.47,1.3v1a3.4,3.4,0,0,1-.62.11c-1,0-2,.05-3,.06A.66.66,0,0,1,798.16,515.39Zm4.1,8.6h-1.49c-.92,0-1-.09-1.09-1a8.06,8.06,0,0,1,0-.85c0-.44.12-.53.56-.55h2.49a.87.87,0,0,1,1,.95C803.71,523.94,803.65,524,802.26,524Zm18.91-5.24c-.08.3-.1.61-.15.91a.7.7,0,0,1-.73.71H808.71c-.17,0-.33,0-.49,0a3.63,3.63,0,0,1-.44-2.36c.29,0,.54,0,.8,0h12C821.29,518,821.35,518.07,821.17,518.75Zm8.22,3.47c-.13.55-.29,1.09-.46,1.72h-3.49c0-.65,0-1.26,0-1.86a.47.47,0,0,1,.53-.47c1,0,1.94,0,2.91,0A.48.48,0,0,1,829.39,522.22Zm1.31-6.76c0,.31-.19.5-.49.51a33.43,33.43,0,0,1-3.86-.11,4.48,4.48,0,0,1-.1-.52,5,5,0,0,1,.06-.57,8.83,8.83,0,0,0,2-.52c.62-.32,1.31-.27,1.91-.59a.85.85,0,0,1,.64.05C831,514.18,830.72,514.94,830.7,515.46Z"/><path class="cls-58" d="M829.39,522.22c-.13.55-.29,1.09-.46,1.72h-3.49c0-.65,0-1.26,0-1.86a.47.47,0,0,1,.53-.47c1,0,1.94,0,2.91,0A.48.48,0,0,1,829.39,522.22Z"/><path class="cls-58" d="M802.26,524h-1.49c-.92,0-1-.09-1.09-1a8.06,8.06,0,0,1,0-.85c0-.44.12-.53.56-.55h2.49a.87.87,0,0,1,1,.95C803.71,523.94,803.65,524,802.26,524Z"/><path class="cls-57" d="M825.86,505.65q-.58-1.11-1.2-2.19a.8.8,0,0,0-.33-.35,3.48,3.48,0,0,0-1.54-.43c-4.76,0-9.53,0-14.29,0h-2.63a2,2,0,0,0-1.7.84,17.71,17.71,0,0,0-1.23,2.32c-.31.66-.64,1.31-1,1.94a1.76,1.76,0,0,0-.18,1.2c.81.21,24.47.23,25.24,0l.29-.62Zm-1.34,2.26c-1.1,0-2.19,0-3.28,0H803.66a2.93,2.93,0,0,1,.11-.81c.29-.61.64-1.18,1-1.77a3.48,3.48,0,0,0,.2-.38c.23-.63.35-.74,1-.77s1.14,0,1.71,0l13.09,0c.61,0,1.23,0,1.84,0,.38,0,.75.06,1.1.08.61,1.23,1.17,2.33,1.78,3.54C825.1,507.84,824.81,507.9,824.52,507.91Z"/><path class="cls-57" d="M801.68,499.6c0-1.47,0-2.94,0-4.41a2.21,2.21,0,0,0-.1-.77c-.19-.55-.45-1.07-.66-1.62a7.52,7.52,0,0,0-2.38-3.06,8.86,8.86,0,0,0-1.62-1,5.32,5.32,0,0,0-1.82-.67c-.37,0-.74-.18-1.11-.2a11.31,11.31,0,0,0-1.54,0,7.47,7.47,0,0,1-.9.17,3.86,3.86,0,0,0-1.86.56,7.92,7.92,0,0,0-2.75,1.94,8.22,8.22,0,0,0-1.69,2.72,9,9,0,0,0-.52,2.83,8.5,8.5,0,0,0,.91,4.28,7.73,7.73,0,0,0,1.61,2.12,7.25,7.25,0,0,0,4.07,2.14.33.33,0,0,1,.2.05A2.34,2.34,0,0,0,793,505h7.75a1.52,1.52,0,0,0,.68-.1.46.46,0,0,0,.25-.32,1.94,1.94,0,0,0,.06-.6c0-1.47,0-2.94,0-4.4Zm-1.17,3.1v.79a4.81,4.81,0,0,1-1,.22c-1.8,0-3.6.05-5.4,0a24.5,24.5,0,0,1-2.82-.29,3.3,3.3,0,0,1-1.16-.45,7.64,7.64,0,0,1-2.78-2.39,10.54,10.54,0,0,1-1-2.06,7.67,7.67,0,0,1-.3-2.63,2,2,0,0,1,.27-1.3.37.37,0,0,0,.07-.2,5.64,5.64,0,0,1,1.84-3.11,9.74,9.74,0,0,1,2.85-1.82,1.42,1.42,0,0,1,.42-.08,13.43,13.43,0,0,1,3.47,0,3.41,3.41,0,0,1,1.59.65c.4.3.87.52,1.26.83a6.84,6.84,0,0,1,2,2.6,8.47,8.47,0,0,1,.73,3.74C800.48,499.05,800.5,500.87,800.51,502.7Z"/><path class="cls-58" d="M800.51,497.22a8.47,8.47,0,0,0-.73-3.74,6.84,6.84,0,0,0-2-2.6c-.39-.31-.86-.53-1.26-.83a3.41,3.41,0,0,0-1.59-.65,13.43,13.43,0,0,0-3.47,0,1.42,1.42,0,0,0-.42.08,9.74,9.74,0,0,0-2.85,1.82,5.64,5.64,0,0,0-1.84,3.11.37.37,0,0,1-.07.2,2,2,0,0,0-.27,1.3,7.67,7.67,0,0,0,.3,2.63,10.54,10.54,0,0,0,1,2.06,7.64,7.64,0,0,0,2.78,2.39,3.3,3.3,0,0,0,1.16.45,24.5,24.5,0,0,0,2.82.29c1.8,0,3.6,0,5.4,0a4.81,4.81,0,0,0,1-.22v-.79C800.5,500.87,800.48,499.05,800.51,497.22Zm-5.06.14c-1,1.06-2.77.06-3.62,1a4.28,4.28,0,0,1-.18,2.69c-.24.45-.48.46-.84.09-.89-2.67-.07-6-.33-8.84a3,3,0,0,1,0-.33,5.36,5.36,0,0,1,4-.51,2.54,2.54,0,0,1,2,1.59,4.07,4.07,0,0,1,.32,1.78A3.1,3.1,0,0,1,795.45,497.36Z"/><path class="cls-57" d="M825.35,512.27c-1,.76-2,1.5-3,2.19a3.4,3.4,0,0,1-1.95.65H808.5a4,4,0,0,1-2.5-1c-.78-.63-1.59-1.25-2.38-1.87a1.3,1.3,0,0,1-.23-.15c-.57-.56-.54-.75.12-1.21.84,0,1.29.67,1.88,1.09s.88.73,1.34,1.07a3.48,3.48,0,0,0,2.13.76c3.77,0,7.53,0,11.3,0a2.94,2.94,0,0,0,1.8-.65c.81-.63,1.64-1.24,2.44-1.88a1.15,1.15,0,0,1,1.38-.16C826,511.72,825.65,512,825.35,512.27Z"/><path class="cls-59" d="M796.52,493.07a2.54,2.54,0,0,0-2-1.59,5.36,5.36,0,0,0-4,.51,3,3,0,0,0,0,.33c.26,2.87-.56,6.17.33,8.84.36.37.6.36.84-.09a4.28,4.28,0,0,0,.18-2.69c.85-1,2.6,0,3.62-1a3.1,3.1,0,0,0,1.39-2.51A4.07,4.07,0,0,0,796.52,493.07Zm-1.07,2.22a4.42,4.42,0,0,1-.34.6,1.7,1.7,0,0,1-1.57.77c-.49,0-1,0-1.49,0a4,4,0,0,1-.11-.54c0-.91-.07-1.82-.07-2.73a2.13,2.13,0,0,1,.21-.63,4.33,4.33,0,0,1,2.6.25.58.58,0,0,1,.14,0A2.21,2.21,0,0,1,795.45,495.29Z"/><path class="cls-58" d="M795.45,495.29a4.42,4.42,0,0,1-.34.6,1.7,1.7,0,0,1-1.57.77c-.49,0-1,0-1.49,0a4,4,0,0,1-.11-.54c0-.91-.07-1.82-.07-2.73a2.13,2.13,0,0,1,.21-.63,4.33,4.33,0,0,1,2.6.25.58.58,0,0,1,.14,0A2.21,2.21,0,0,1,795.45,495.29Z"/><path class="cls-58" d="M715.13,277.84a16.52,16.52,0,0,0-.57-3.11c-.31-1.29-.19-2.71-1.11-3.82,0,0,0-.1,0-.15a14.13,14.13,0,0,0-1.15-3.18c-1-1.55-1.86-3.23-2.91-4.79a33.25,33.25,0,0,0-6-6.43,32,32,0,0,0-4.9-3.29,18.33,18.33,0,0,0-3.54-1.72c-1.35-.42-2.62-1.35-4.16-1.16-.32,0-.67-.2-1-.27a15.82,15.82,0,0,0-2.52-.5c-1.41-.08-2.83,0-4.25,0-2.39.14-4.88-.45-7.16.74-2.46-.08-4.49,1.29-6.62,2.16a24.48,24.48,0,0,0-6.37,4,32.07,32.07,0,0,0-6.05,6.33,29.54,29.54,0,0,0-3.82,7.33,28.67,28.67,0,0,0-1.61,6.36c-.12,1.25-.49,2.47-.61,3.71a29,29,0,0,0,0,3.36,11.88,11.88,0,0,0,.09,1.33c.16,1.09.45,2.17.67,3.25.32,1.57.63,3.14.94,4.71a3.29,3.29,0,0,0,.16.44,18.76,18.76,0,0,0,.83,2.2c.72,1.51,1.25,3.13,2,4.63.6,1.19,1.36,2.3,1.93,3.51a35.11,35.11,0,0,0,3.34,5.34c1.38,1.92,2.86,3.74,4.37,5.57,2.12,2.55,4.37,4.95,6.71,7.28,1.83,1.82,3.79,3.52,5.76,5.19,1.35,1.14,2.8,2.17,4.24,3.19a2.18,2.18,0,0,0,2.58.05,68.69,68.69,0,0,0,5.65-4.38c2.1-1.84,4.07-3.83,6-5.81,1.51-1.52,3-3.09,4.39-4.69a57.32,57.32,0,0,0,5.28-6.93c1.13-1.72,2.31-3.41,3.35-5.19.77-1.32,1.35-2.76,2-4.14a21.39,21.39,0,0,0,2.34-6.24c0-.25,0-.57.21-.72.72-.67.58-1.57.69-2.4a3.21,3.21,0,0,1,.17-1.19,6.29,6.29,0,0,0,.65-3.39C715.19,282.6,715.22,280.21,715.13,277.84Zm-51.55,2.36a10.61,10.61,0,0,1,.4-2.05c0-.25.18-.48.22-.73a17.82,17.82,0,0,1,.92-3.3,13.47,13.47,0,0,1,1.85-3.53,17.33,17.33,0,0,1,4.75-4.83,23.82,23.82,0,0,1,4.21-2.39,16.91,16.91,0,0,1,7.08-1.26,33.34,33.34,0,0,1,3.48.21,21.69,21.69,0,0,1,3.62,1,13.88,13.88,0,0,1,2.75,1.38,20.26,20.26,0,0,1,6,5.42,28.38,28.38,0,0,1,2.7,5.4c.79,1.93.55,3.86.68,5.79,0,.82,0,1.63,0,2.44a14.25,14.25,0,0,1-1.43,5.41,18.18,18.18,0,0,1-5.25,7.08,21.09,21.09,0,0,1-5.12,3.14,36.79,36.79,0,0,1-4.92,1.37,8.69,8.69,0,0,1-5.79-.22,5.18,5.18,0,0,0-1.08-.33,17.51,17.51,0,0,1-9.23-5,19.46,19.46,0,0,1-4-5.61,23.63,23.63,0,0,1-1.34-4A18.64,18.64,0,0,1,663.58,280.2Z"/><path class="cls-58" d="M678.15,294.76c-.2-7.94,0-15.76-.1-23.47,2.76-1.81,5.68-1.48,8.4-1.11a5.76,5.76,0,0,1,4.8,3.74c1.43,3.85.58,7.45-1.86,9.4-1.82,1.45-3.85,1.51-6,1.52h-2.57c-.06.8-.16,1.54-.17,2.27,0,1.88,0,3.76,0,5.63a5.37,5.37,0,0,1-.07.9c-.15,1.1-.33,1.26-1.47,1.26C678.91,294.89,678.67,294.83,678.15,294.76Zm2.53-21.13V275c0,1.92,0,3.84,0,5.76,0,.66.26,1.27,1,1.31,1.88.1,3.75.51,5.52-.72,2.1-1.46,3.07-4.92.87-7.15a5.11,5.11,0,0,0-1.9-1A5.57,5.57,0,0,0,680.68,273.63Z"/><path class="cls-58" d="M488.1,217.34,438.43,267l-38.79-38.81q19-19,38.11-38c.68,1,.68,1-1.35,3.29q13.16,13,26.31,26.14L456,225.92l-10.06-10.68c.49,4.23.88,7.75,1.24,11l-8.61-3.58a116.81,116.81,0,0,0-3.32-11.31c-1.51-3.79-3.68-7.32-5.61-11-2.71,2.65-5,4.94-7.56,7.46l12.83,12.48-4.19,3.88-1.51-1.43,1.91-2.07-10.88-10.87c-1,.95-2.05,2-3.24,3.16l14,13.46c-.65,1.09-1,1.72-1.48,2.45-4.7-4.86-9.33-9.63-14.15-14.57-1.43,1.55-2.5,2.69-3.71,4,2.55,2.41,5.15,4.88,7.87,7.43l-9.93,9.55,3.48,3.43c3.7-3.81,7.54-7.78,11.65-12l2,2.21c-4.12,4-8.08,7.87-12.14,11.83,1.27,1.22,2.36,2.25,3.72,3.58,3.1-3.41,6.22-6.82,9.63-10.54,1,3.31,1,3.32-.8,5.11q-3.54,3.49-7.06,6.89l8.79,8.53q2.37-3.9,5.32-8.7c1.65,2.51,3.22,4.77,4.59,7.15a2.63,2.63,0,0,1-.13,2.17c-1.16,2-2.48,3.94-3.79,6,1.29,1.29,2.55,2.53,3.73,3.7,6.65-6.64,13.25-13.27,20-20-2.93-2.77-6-5.68-8.95-8.51,5.63-5.61,10.84-10.84,16.15-16.15.32.45.77,1,1.36,1.79l-13.93,13.64,7.38,7.3,6.17-6.35-5.87-5.62c2.18-2.22,4.15-4.21,6.25-6.33l5.68,6.2,4.68-5.32-3.58-3.74,1.43-2c1.4,1.54,2.69,2.93,3.93,4.31l6.49-6.51c-1.24-2.62-5.24-3.69-5.51-7.2l.57-.39C483.26,212.31,485.74,214.88,488.1,217.34Z"/><path class="cls-58" d="M449,169.35a10.57,10.57,0,0,0-12.5,8.38A13.74,13.74,0,0,0,439,188.31l.21.31c2.53,3.69,5.28,7.23,8,10.94,2.58-3.45,5.22-6.56,7.36-10a30.82,30.82,0,0,0,2-3.77,18.85,18.85,0,0,0,1.39-4.29C459.07,175.36,455.17,170.39,449,169.35Zm-1.76,14.22a4.07,4.07,0,0,1-2.3-.7,4.25,4.25,0,1,1,6.51-3.55,4,4,0,0,1-.18,1.2A4.37,4.37,0,0,1,447.24,183.57Z"/><path class="cls-58" d="M443.32,226.37a9.5,9.5,0,0,0-9.95.62c-3.53,2.77-4.29,7.8-1.52,12.33,2,3.32,4.48,6.39,6.9,9.79,2.21-3,4.36-5.6,6.15-8.44a17.85,17.85,0,0,0,2.32-5.66A8,8,0,0,0,443.32,226.37Zm-4.52,10.12a3.35,3.35,0,1,1,3.32-3.24A3.38,3.38,0,0,1,438.8,236.49Z"/><path class="cls-58" d="M472.77,199.89a9.63,9.63,0,0,0-2.46-.33,8.17,8.17,0,0,0-8.23,6.72,9.3,9.3,0,0,0,1.28,6.95c2.19,3.32,4.54,6.53,6.92,9.91,1.86-2.46,3.6-4.6,5.16-6.87a23.37,23.37,0,0,0,2.8-5,9.7,9.7,0,0,0,.6-3.16A8.11,8.11,0,0,0,472.77,199.89Zm-2.51,10.83a3.35,3.35,0,0,1-3.19-3.39,3.3,3.3,0,0,1,3.38-3.18,3.27,3.27,0,0,1,3.18,3.37A3.34,3.34,0,0,1,470.26,210.72Z"/><path class="cls-58" d="M460.26,207.63l-9.55-9.73,1.37-1.88c2.74,2.84,5.43,5.47,7.88,8.3C460.49,204.93,460.17,206.28,460.26,207.63Z"/><path class="cls-58" d="M468.64,198.41a9.08,9.08,0,0,1-2.61-1.09c-2.65-2.5-5.23-5.08-7.75-7.71a2.16,2.16,0,0,1-.18-2.09Z"/><path class="cls-58" d="M423.5,571c-1.43-6.49.44-12.52,6.27-15.16a2.43,2.43,0,0,0,1-1.54,14.48,14.48,0,0,1,14.47-11.43c3.2,0,6.4,0,9.6,0a14.46,14.46,0,0,1,13.91,11.34,3.12,3.12,0,0,0,1.33,1.78c5.13,3,7.25,7.7,6.33,13.68-.24,1.59-1.23,1.34-2.21,1.34H423.5Zm43-15.63c.3-5-5.57-11.15-10.74-11.31q-6-.2-12,0c-5.12.16-10.85,6.25-10.73,11.31Zm6.33,8.1c-2.27,0-4.42-.1-6.56,0-1.38.09-2.44,1.07-2.1,2.43a3.41,3.41,0,0,0,2.11,2.2,45.81,45.81,0,0,0,6.55.1Zm-46.17,4.77c2.31,0,4.41.06,6.51,0,1.4-.06,2.48-1,2.23-2.33a3.29,3.29,0,0,0-2-2.27,46.52,46.52,0,0,0-6.7-.11Zm23.37-2.5c1.22-.3,2.75-.49,2.74-2.27s-1.34-2.11-2.69-2.16-2.87.47-3,2.1S448.54,565.51,450.05,565.77Z"/><path class="cls-58" d="M482.92,588.23V529.39h-6.1c-2.52,0-5,.06-7.56-.06-.51,0-1-.73-1.48-1.12.45-.44.89-1.25,1.34-1.26,5.36-.09,10.73-.06,16.26-.06v63.89H414.15V527h48.28l.18,2.28H416.74v58.91Z"/><path class="cls-58" d="M476.19,576.88c-.54,2.1-1.92,2.29-3.41,2.29H427.05c-1.51,0-3.06,0-3.62-2.29,1.74,0,3.4.1,5-.06.63-.06,1.19-.73,1.79-1.12-.6-.39-1.18-1.07-1.81-1.12-1.88-.15-3.78-.05-5.74-.05-.39-2,.63-2.23,2-2.23q13.27,0,26.54,0h23.08c.54,0,1.2-.16,1.6.09s.75,1,1.12,1.47a3.86,3.86,0,0,1-1.32.62c-1.56.08-3.14-.09-4.68.09-.61.07-1.13.82-1.7,1.26.57.35,1.12.94,1.72,1C472.7,577,474.33,576.88,476.19,576.88Z"/><path class="cls-58" d="M487.46,577.3v-2.38h13.91V535.19H487.51l-.11-2.45h16.53V577.3Z"/><path class="cls-58" d="M456.64,535.05v5.88H454.2v-8.14h26.9l.12,2.26Z"/><path class="cls-58" d="M469.66,550.45h11.42v9.47c-2.26.19-4.5.78-5.87-1.94a5.15,5.15,0,0,0-2.17-2.09C470.78,554.76,470,552.84,469.66,550.45Zm11.14,5.33V555c-.63-.33-1.29-1-1.88-.91s-1.18.81-1.76,1.26c.56.47,1.09,1.24,1.71,1.32S480.16,556.11,480.8,555.78Z"/><path class="cls-58" d="M487.46,560v-9.44l2.19-.35-2.35-5.09.62-.4c.83,1.33,1.64,2.68,2.5,4a9.14,9.14,0,0,0,1.78,2.42,7.67,7.67,0,0,1,2.9,8.87Zm5.66-1.6v-3a20.87,20.87,0,0,0-3.73.06c-.6.12-1.07.91-1.59,1.39.57.52,1.07,1.33,1.73,1.48A16.87,16.87,0,0,0,493.12,558.38Z"/><path class="cls-58" d="M435.39,580.26c.11,3.19-1.56,5.2-4.22,5.24s-4.48-2-4.4-5.24Z"/><path class="cls-58" d="M464.22,580.23h8.5a4.11,4.11,0,0,1-1.86,4.59,4.16,4.16,0,0,1-4.61.07A4.27,4.27,0,0,1,464.22,580.23Z"/><path class="cls-58" d="M495.67,562.23a22.91,22.91,0,0,0-3,0,5.53,5.53,0,0,0-1.58.78,5.51,5.51,0,0,0,1.49.68A13.36,13.36,0,0,1,495,564c-2.25,1.88-4.92.67-7.52,1.08v-4.19c2.78.18,5.57-.51,8.23.37Z"/><path class="cls-58" d="M487.89,565.9H493c0,2.1-.82,3.15-2.5,3.19S488,568.17,487.89,565.9Z"/><path class="cls-58" d="M481.05,543.19c-5.07-.17-10.27-.6-12.55,5.54l-.51-.37c.06-.57-.06-1.25.21-1.68a8.3,8.3,0,0,1,6.25-4.1c2.14-.21,4.32,0,6.48,0Z"/><path class="cls-58" d="M477.34,561h3.74v4h-2.69C478.05,563.69,477.71,562.41,477.34,561Z"/><path class="cls-60" d="M833.63,508.59l-2.85.09a1,1,0,0,1-1.1-.55c-.56-1-1.23-1.95-1.87-2.91s-1.25-1.88-2-2.75a2.61,2.61,0,0,0-1.92-1c-.31,0-.62,0-.92,0H805.5c-.53,0-.92-.14-1-.62l-2.91,3.77a.46.46,0,0,1-.25.32L799,508c0,.41-.15.63-.57.64-.59,0-1.19,0-1.78,0s-.95,0-1.42,0a7.37,7.37,0,0,0-.78.08v1.18c.31,0,.58,0,.86,0,.61,0,1.23,0,1.85,0a.5.5,0,0,1,.54.53c0,.3,0,.61,0,.92a.85.85,0,0,0,.75.92A15.87,15.87,0,0,1,801,513c.52.18,1.07.29,1.61.42a1.88,1.88,0,0,1,1.22,2.65,1.73,1.73,0,0,1-1.71,1.07,23.29,23.29,0,0,0-2.76.2c-.56.06-.65.18-.58.74a4.28,4.28,0,0,0,.52,2.18,61,61,0,0,0,7.17,0,2.82,2.82,0,0,0-.15-1.57,1.55,1.55,0,0,1,.87-1.94,7.13,7.13,0,0,1,1.95-.28c3.77,0,7.54,0,11.31,0a2.17,2.17,0,0,1,1.67.61,1.92,1.92,0,0,1,.28,2.11,10.58,10.58,0,0,0-.23,1.08c.33,0,.56.1.78.1,2.27,0,4.52.12,6.78-.09,0-.28.08-.51.1-.74-.07-.7.39-1.21.39-1.92a6.55,6.55,0,0,0-2.19-.43,7.63,7.63,0,0,0-1.35,0,2.12,2.12,0,0,1-1.41-.54.64.64,0,0,1-.25-.41,9.42,9.42,0,0,1,0-1.84c.07-.47.53-.68.95-.87a2.44,2.44,0,0,1,.71-.26,11.14,11.14,0,0,0,1.88-.52c.31-.07.62-.2.93-.28a7.58,7.58,0,0,1,.83-.15c.63-.09.82-.3.78-.93,0-.24,0-.47,0-.71a.68.68,0,0,1,.75-.74c.66,0,1.33,0,2,0,.44,0,.6-.23.72-.54C834.85,508.75,834.14,508.5,833.63,508.59Zm-8.28,3.68c-1,.76-2,1.5-3,2.19a3.4,3.4,0,0,1-1.95.65H808.5a4,4,0,0,1-2.5-1c-.78-.63-1.59-1.25-2.38-1.87a1.3,1.3,0,0,1-.23-.15c-.57-.56-.54-.75.12-1.21.84,0,1.29.67,1.88,1.09s.88.73,1.34,1.07a3.48,3.48,0,0,0,2.13.76c3.77,0,7.53,0,11.3,0a2.94,2.94,0,0,0,1.8-.65c.81-.63,1.64-1.24,2.44-1.88a1.15,1.15,0,0,1,1.38-.16C826,511.72,825.65,512,825.35,512.27ZM827,509c-.77.19-24.43.17-25.24,0a1.76,1.76,0,0,1,.18-1.2c.36-.63.69-1.28,1-1.94a17.71,17.71,0,0,1,1.23-2.32,2,2,0,0,1,1.7-.84h2.63c4.76,0,9.53,0,14.29,0a3.48,3.48,0,0,1,1.54.43.8.8,0,0,1,.33.35q.62,1.08,1.2,2.19l1.43,2.77Z"/><line class="cls-60" x1="801.64" y1="504.6" x2="801.39" y2="504.92"/><path class="cls-61" d="M280.38,387.11h.05v2.29s-.06,0-.09,0a1,1,0,0,1,0-.43c0-.48,0-1,0-1.45A.53.53,0,0,1,280.38,387.11Z"/><path class="cls-62" d="M280.38,389.41h.05v2.06h-.05a.39.39,0,0,1-.08-.27q0-.76,0-1.53A.36.36,0,0,1,280.38,389.41Z"/><path class="cls-63" d="M243.65,333.41s0,0,0-.06h.54v.06A.42.42,0,0,1,243.65,333.41Z"/><path class="cls-62" d="M279.25,333.35v.06a.35.35,0,0,1-.48,0v-.06Z"/><path class="cls-64" d="M261.34,333.41v-.06h.48v.06A.37.37,0,0,1,261.34,333.41Z"/><path class="cls-65" d="M226.66,333.35v0a.29.29,0,0,1-.43,0v0Z"/><path class="cls-58" d="M226.23,333.4h.43c.63.14.9.56.91,1.41,0,2.83,0,5.67,0,8.5.06,3.15,0,6.3.06,9.45.05,2.92,0,5.84,0,8.76,0,.26.06.34.31.34H242.7c.24,0,.32-.05.32-.34,0-.8,0-1.6,0-2.41-.1-3.1,0-6.2-.07-9.3,0-.67,0-1.35,0-2,0-2.4,0-4.8,0-7.2,0-2,0-4,0-6a1.05,1.05,0,0,1,.8-1.17h.54a1,1,0,0,1,.81,1.17c0,.9.05,1.8.05,2.7,0,2.45,0,4.9,0,7.35,0,.67,0,1.33,0,2,0,2.46,0,4.92,0,7.38s0,5,0,7.56c0,.24.07.29.28.29h14.95c.22,0,.28-.07.27-.3,0-1.26,0-2.53,0-3.79,0-.62,0-1.24,0-1.85,0-2.46,0-4.93,0-7.38-.06-3.09,0-6.18-.05-9.27,0-1.58,0-3.16,0-4.73a1,1,0,0,1,.85-1.13h.49c.65.17.85.64.85,1.4,0,2.78,0,5.57,0,8.36.05,3.16,0,6.33.05,9.5.06,2.94,0,5.89,0,8.84,0,.26,0,.35.31.35h14.69c.24,0,.29-.08.29-.33,0-1.38,0-2.77,0-4.15,0-.66,0-1.31,0-2,0-2.43,0-4.86,0-7.29-.06-3.09,0-6.18-.06-9.27,0-1.42,0-2.85,0-4.28a1,1,0,0,1,.85-1.16h.48c.61.19.85.57.86,1.36,0,2.65,0,5.3,0,8,0,.74,0,1.47,0,2.2,0,2.41,0,4.83,0,7.24.05,3.08,0,6.17.05,9.25s0,6.18,0,9.26,0,6.18.06,9.27c.05,2.39,0,4.78,0,7.17v4.37a1,1,0,0,1-1.07.88,1,1,0,0,1-1-.91,2.81,2.81,0,0,1,0-.5c0-2,0-3.92,0-5.88-.07-3.14,0-6.28-.05-9.42-.06-3,0-6-.05-9,0-.76,0-1.51,0-2.26,0-.12,0-.17-.13-.16H263.59a2.15,2.15,0,0,1-.56,0c-.12,0-.24,0-.22.19.08.85,0,1.71,0,2.56,0,1,0,2,0,3,.07,3.48,0,7,.06,10.45,0,2.7,0,5.41,0,8.11,0,.86.07,1.71.05,2.56a1.1,1.1,0,0,1-1.65,1.09,1.19,1.19,0,0,1-.54-1.13c0-1.83,0-3.67,0-5.5-.07-3.11,0-6.22-.05-9.33s0-6.16-.06-9.24c0-.81-.05-1.62,0-2.44,0-.24-.08-.32-.32-.32l-14.6,0c-.19,0-.43-.13-.53,0s0,.39,0,.59c0,2.51,0,5,0,7.5.06,3.1,0,6.2.05,9.3s0,6.16,0,9.24a1.4,1.4,0,0,1-.28,1.14,1.1,1.1,0,0,1-1.86-.85c0-.77,0-1.55,0-2.32,0-3.59,0-7.18,0-10.77,0-.87-.06-1.73-.05-2.59,0-2.39,0-4.78,0-7.18,0-1.27,0-2.54,0-3.81,0-.31-.16-.27-.33-.27H227.93c-.14,0-.24,0-.23.21.07.86,0,1.72,0,2.58q0,1.68,0,3.36c0,.9.06,1.8.05,2.7,0,2.46,0,4.92,0,7.38.06,3.08,0,6.16,0,9.24,0,.47,0,.95,0,1.43a1.13,1.13,0,0,1-.71,1.13,1.06,1.06,0,0,1-1.24-.34,1.38,1.38,0,0,1-.24-.88c0-1.15,0-2.3,0-3.45-.05-3.73,0-7.47-.06-11.21,0-3.12,0-6.23-.06-9.35,0-.64,0-1.28,0-1.91,0-2.47,0-4.94,0-7.41-.06-3,0-6.08-.05-9.12s0-6.18-.06-9.27c0-.62,0-1.23,0-1.85,0-1,0-2,0-3A1.06,1.06,0,0,1,226.23,333.4Z"/><path class="cls-58" d="M276.41,378.48v-7.59a11.14,11.14,0,0,0-.16-1.92,3.67,3.67,0,0,0-1.3-2.33,3.5,3.5,0,0,0-2.18-.72H268.5a5.43,5.43,0,0,0-.9.05,3.59,3.59,0,0,0-2.86,2.56,5.83,5.83,0,0,0-.27,1.9c0,2.16,0,4.31,0,6.47,0,2.71,0,5.42,0,8.13a13.58,13.58,0,0,0,.14,2,3.8,3.8,0,0,0,1.36,2.47,3.48,3.48,0,0,0,2.17.72c1.46,0,2.93,0,4.39,0,.22,0,.44,0,.67,0a3.81,3.81,0,0,0,3.22-4.05C276.38,383.59,276.41,381,276.41,378.48Zm-10.14-9.43a1.77,1.77,0,0,1,1.58-1.31c1.43-.12,2.87,0,4.3-.05a4,4,0,0,1,1.4.19,2,2,0,0,1,1.25,1.92c0,.74,0,1.49,0,2.24,0,.08,0,.18,0,.25l-1.07,1.16a5.46,5.46,0,0,0-.23-1.54,2,2,0,0,0-1.72-1.46,11,11,0,0,0-2.3,0c-1.34.07-2.16.64-2.36,2.52,0,.15,0,.31-.06.48a7.54,7.54,0,0,1-.86-.94c-.12-.17-.06-.49-.07-.74A7.8,7.8,0,0,1,266.27,369.05Zm8.52,4.15v9c-.36-.4-.67-.74-1-1.09,0,0,0-.15,0-.22,0-2,0-4-.08-5.94a1.33,1.33,0,0,1,.44-1.13c.2-.2.37-.44.55-.66Zm-1.54,7.43c0,.2-.06.25-.23.25h-5c-.25,0-.32,0-.33-.35,0-1.28,0-2.56,0-3.85,0-.62,0-1.25-.05-1.87,0-.23.05-.31.27-.31h5.06c.2,0,.25.07.26.29.06,1.63,0,3.27.05,4.9C273.2,380,273.25,380.32,273.25,380.63Zm-6.21-4c0,1.41,0,2.81,0,4.22a.6.6,0,0,1-.18.46c-.25.27-.48.54-.78.88v-8.77c.29.31.59.61.87.93,0,0,0,.16,0,.25C267,375.24,267,375.91,267,376.59Zm7.75,9.32a3.17,3.17,0,0,1-.5,1.82,1.68,1.68,0,0,1-1.16.68,4.28,4.28,0,0,1-.8,0c-1,0-2,.07-2.94.05a13.52,13.52,0,0,1-1.68-.1,1.86,1.86,0,0,1-1.49-1.69,24.52,24.52,0,0,1-.11-2.84,1.51,1.51,0,0,1,.53-1.4,5,5,0,0,0,.46-.52,4.23,4.23,0,0,0,.47,1.47,1.73,1.73,0,0,0,1.19.77,4.84,4.84,0,0,0,1.37.08c.46,0,.92,0,1.39,0a2.13,2.13,0,0,0,2.21-2.15c0-.05,0-.11,0-.13s.1,0,.13.07c.28.29.54.6.82.89a.41.41,0,0,1,.08.3C274.8,384.12,274.83,385,274.79,385.91Z"/><path class="cls-58" d="M241.33,375.8c0-1.5,0-3,0-4.53a15.07,15.07,0,0,0-.15-2.6,3.61,3.61,0,0,0-1.73-2.68,4,4,0,0,0-2-.48c-1.34,0-2.68,0-4,0a6.42,6.42,0,0,0-1.16.11,3.76,3.76,0,0,0-2.89,3.8q0,3.91,0,7.83v6.48a18.35,18.35,0,0,0,.11,2.67,4.21,4.21,0,0,0,.89,2.25,3.2,3.2,0,0,0,2.51,1.17c1.61,0,3.22,0,4.83,0a3.66,3.66,0,0,0,3.46-3,11.18,11.18,0,0,0,.15-2.65C241.33,381.38,241.35,378.59,241.33,375.8ZM231,370a4.2,4.2,0,0,1,.3-1.56,1.62,1.62,0,0,1,1.52-1.05c1.66,0,3.31,0,5,0a1.86,1.86,0,0,1,1.79,1.72,24.75,24.75,0,0,1,.12,2.72,1.79,1.79,0,0,1-.64,1.7,2.8,2.8,0,0,0-.36.43,4,4,0,0,0-.43-1.51,1.63,1.63,0,0,0-1.18-.79,10.54,10.54,0,0,0-3.41,0,2,2,0,0,0-1.61,2.09,1.18,1.18,0,0,1,0,.16l-1-1.09c-.06-.07,0-.17,0-.25C231,371.66,231,370.81,231,370Zm7.76,8.63c0-1.22-.05-2.43-.05-3.65a.63.63,0,0,1,.17-.46c.25-.27.49-.55.73-.82l.06,0v8.75l-.85-.95a.39.39,0,0,1-.05-.28C238.78,380.32,238.79,379.45,238.77,378.58Zm-.52,2.34c0,.28-.06.38-.32.37-.83,0-1.66,0-2.49,0h-2.52c-.2,0-.26-.06-.26-.28,0-1.77,0-3.55-.06-5.32a4.21,4.21,0,0,0,0-.5c0-.24,0-.33.29-.33h5c.17,0,.25,0,.27.25.07.8,0,1.6,0,2.41C238.21,378.65,238.21,379.79,238.25,380.92Zm-6.17.31a.59.59,0,0,1-.16.44c-.3.3-.58.63-.9,1v-9.05l1,1.07c.06.06,0,.15,0,.22C232,377,232.1,379.12,232.08,381.23Zm7.57,5.07a1.84,1.84,0,0,1-1.92,1.74c-1.48,0-3,0-4.44,0a2.83,2.83,0,0,1-.71-.1,2,2,0,0,1-1.57-2.12c0-.69,0-1.39,0-2.09a.38.38,0,0,1,.07-.27l1.05-1.14a5.7,5.7,0,0,0,.24,1.53,1.9,1.9,0,0,0,1.59,1.42,10.93,10.93,0,0,0,2.8,0,2.12,2.12,0,0,0,1.91-2c.05-.3.09-.6.14-1a7.09,7.09,0,0,1,.85,1,2,2,0,0,1,.07.82A9.75,9.75,0,0,1,239.65,386.3Z"/><path class="cls-58" d="M253,375.64c-.64,0-1.28,0-1.93,0-.22,0-.26.07-.26.3,0,1.25,0,2.51,0,3.77v3.79c0,.2,0,.29.24.27a3.49,3.49,0,0,1,.56,0c.23,0,.28-.08.28-.31,0-.76,0-1.51,0-2.27,0-.21.05-.3.25-.21a.53.53,0,0,0,.18,0,2.61,2.61,0,0,0,2.7-.82,3.25,3.25,0,0,0,.29-3.26A2.58,2.58,0,0,0,253,375.64Zm1.53,3a1.78,1.78,0,0,1-.76,1.36,1.68,1.68,0,0,1-1.77,0c-.13-.05-.12-.17-.12-.29v-1.41c0-.46,0-.92,0-1.38,0-.23.06-.29.26-.28a7.11,7.11,0,0,1,1.3.09A1.66,1.66,0,0,1,254.56,378.6Z"/><path class="cls-58" d="M267.89,354.34c0,.21.05.29.24.27h.51c.21,0,.28-.05.27-.29,0-.76,0-1.53,0-2.3,0-.22,0-.27.25-.19a2.28,2.28,0,0,0,1.24.1,2.6,2.6,0,0,0,2-2.78,2.48,2.48,0,0,0-2.48-2.78c-.58,0-1.16,0-1.74,0-.22,0-.27.07-.27.3,0,1.27,0,2.53,0,3.8S267.9,353.05,267.89,354.34Zm1.24-7a8.22,8.22,0,0,1,1,.06,1.37,1.37,0,0,1,1.23,1.29,2.2,2.2,0,0,1-.52,1.94,1.44,1.44,0,0,1-1.79.19.28.28,0,0,1-.13-.29v-1.5c0-.48,0-1,0-1.44C268.9,347.42,269,347.35,269.13,347.36Z"/><path class="cls-58" d="M258.88,342.91a24.07,24.07,0,0,0-.1-3.29,3.74,3.74,0,0,0-1.61-2.8,4.15,4.15,0,0,0-2.07-.58c-.32,0-.64,0-1,0a25.75,25.75,0,0,0-4.3.11,3.3,3.3,0,0,0-2,1.19,4.4,4.4,0,0,0-.93,2.95c0,4.71,0,9.42,0,14.13a17.4,17.4,0,0,0,.15,2.69,3.48,3.48,0,0,0,2.26,3,5.27,5.27,0,0,0,2,.21c1.34,0,2.68,0,4,0a3.27,3.27,0,0,0,2.45-1.13,4.27,4.27,0,0,0,1.08-2.92c0-2.63,0-5.25,0-7.88C258.88,346.71,258.89,344.81,258.88,342.91Zm-10.28-2.54a2.35,2.35,0,0,1,.92-2,1.71,1.71,0,0,1,1-.28h4.77a1.91,1.91,0,0,1,1.9,1.83,28.08,28.08,0,0,1,.11,3.43.39.39,0,0,1-.13.28l-.72.79c-.05.05-.08.15-.17.1s0-.12-.05-.19a2.35,2.35,0,0,0-.61-1.46,2.07,2.07,0,0,0-1.47-.59c-.79,0-1.58,0-2.36,0a2.06,2.06,0,0,0-1.58.68,2.53,2.53,0,0,0-.52,1.26l-.07.35-1-1a.33.33,0,0,1-.06-.25C248.59,342.3,248.56,341.33,248.6,340.37Zm8.65,4v8.85l-.84-.92a.36.36,0,0,1-.05-.25c0-1.75-.07-3.5-.06-5.25,0-.37,0-.74,0-1.11a.35.35,0,0,1,.06-.28C256.62,345.05,256.92,344.72,257.25,344.34Zm-1.46,7.36c0,.3-.06.33-.29.32h-5c-.21,0-.28,0-.28-.29,0-.89,0-1.79,0-2.68,0-1.05,0-2.09-.06-3.14,0-.24.06-.32.29-.32h5c.21,0,.27,0,.27.29C255.73,347.83,255.75,349.76,255.79,351.7Zm-6.18-2.13c0,.78.07,1.57,0,2.35a.63.63,0,0,1-.16.44c-.29.3-.57.62-.89,1v-9a10.07,10.07,0,0,1,.89,1c.16.23.09.58.1.88C249.61,347.36,249.6,348.46,249.61,349.57Zm7.66,7a2.74,2.74,0,0,1-.57,1.61,1.84,1.84,0,0,1-1.38.61c-1.52,0-3,0-4.58,0a2.31,2.31,0,0,1-1.44-.46,2,2,0,0,1-.71-1.54c0-.79,0-1.57,0-2.36a.37.37,0,0,1,.06-.25l1-1.1c.09.4.09.77.16,1.13a2.08,2.08,0,0,0,1.84,1.83,15.55,15.55,0,0,0,2.46,0,2.24,2.24,0,0,0,2.14-2.19,2.83,2.83,0,0,0,.06-.64c0-.05,0-.11,0-.13s.09,0,.12.06l.72.79a.36.36,0,0,1,.08.27C257.25,355,257.35,355.78,257.27,356.56Z"/><path class="cls-58" d="M241.4,348.78q0-3.76,0-7.54a10.55,10.55,0,0,0-.17-1.95,3.53,3.53,0,0,0-1.58-2.49,3.89,3.89,0,0,0-2.08-.55c-1.24,0-2.47,0-3.7,0a8.42,8.42,0,0,0-1.33.11,3.55,3.55,0,0,0-2.82,2.55,8.5,8.5,0,0,0-.27,2.75c0,4.4,0,8.79,0,13.19a17.29,17.29,0,0,0,.1,2.49,3.64,3.64,0,0,0,1.92,2.88,5.28,5.28,0,0,0,2,.4c.35,0,.69-.05,1-.05h3.24a3.65,3.65,0,0,0,.93-.12,3.79,3.79,0,0,0,2.72-3.77c0-2.63,0-5.26,0-7.89Zm-9.67-7.58a1.47,1.47,0,0,1,1.46-1.28c1.32,0,2.63,0,3.94,0a1.53,1.53,0,0,1,1.45.84,2,2,0,0,1,.21.87c0,.6,0,1.21,0,1.81a.32.32,0,0,1-.07.25c-.27.29-.54.58-.83.91,0-.31,0-.59-.1-.86a1.72,1.72,0,0,0-1.75-1.61c-.56,0-1.12,0-1.67,0a1.82,1.82,0,0,0-1.87,1.74c0,.23-.07.46-.11.76l-.67-.78a.2.2,0,0,1-.06-.12A10.79,10.79,0,0,1,231.73,341.2Zm5.79,9.27c0,.24-.07.28-.26.28h-4.11c-.16,0-.21,0-.22-.23,0-1.3,0-2.61,0-3.91,0-.3,0-.61,0-.91s0-.23.19-.23h4.2c.16,0,.19.07.2.23.06,1.24,0,2.48,0,3.72C237.49,349.77,237.5,350.12,237.52,350.47Zm-6.4,2v-8.8l.85.91c.08.09.05.21.05.31,0,.71,0,1.42,0,2.12.06,1.23,0,2.47.05,3.7a1.23,1.23,0,0,0,0,.2.76.76,0,0,1-.19.69C231.65,351.9,231.41,352.19,231.12,352.51Zm7.59,3a1.54,1.54,0,0,1-1.49,1.39c-1.29,0-2.57,0-3.85,0-1.06,0-1.54-.6-1.67-1.76-.08-.84,0-1.68,0-2.51a.41.41,0,0,1,.11-.32c.23-.25.45-.5.68-.77a1.46,1.46,0,0,1,.13.54,1.56,1.56,0,0,0,1.4,1.34,11.8,11.8,0,0,0,2.45,0,1.69,1.69,0,0,0,1.48-1.61c0-.07,0-.17.06-.19s.1.06.14.11a3,3,0,0,1,.64.75,2.66,2.66,0,0,1,0,1A11.35,11.35,0,0,1,238.71,355.55Zm1.07-3.3-.91-1c-.06-.07,0-.17,0-.26,0-.88,0-1.76,0-2.64,0-1.09,0-2.18,0-3.26a.57.57,0,0,1,.15-.42c.28-.29.54-.59.85-.93Z"/><path class="cls-59" d="M237.24,345.47H233c-.16,0-.2.07-.19.23s0,.61,0,.91c0,1.3,0,2.61,0,3.91,0,.19.06.23.22.23h4.11c.19,0,.27,0,.26-.28s0-.7,0-1.05c0-1.24,0-2.48,0-3.72C237.43,345.54,237.4,345.47,237.24,345.47Z"/><path class="cls-58" d="M45.47,285.74H63.23v17.13c0,8.18-.53,8.7-8.76,8.7-5.33,0-10.67,0-16,0-3.2,0-5.09-1.46-5.16-4.34-.16-7.08-.05-14.16-.05-21.41h5.6c0,6.28,0,12.42,0,18.57,0,1,.34,2.82.79,2.91a16.81,16.81,0,0,0,5.25,0c.28,0,.52-1.46.52-2.25C45.49,298.66,45.47,292.32,45.47,285.74Z"/><path class="cls-58" d="M76.06,272.68c0-2.81-1.62-4.38-4.41-4.38q-23.46-.07-46.93,0c-2.65,0-4.28,1.56-4.31,4.16-.11,6.65-.1,13.3,0,19.94,0,2.32,1.27,4,3.69,4.2s4.53,0,7.14,0c0-1.11.18-4.39.12-5.16-4-.4-4.45-1-4.34-4.7.09-3.24,2.24-3.07,4.49-3.07,11.15,0,22.3,0,33.44,0,4.16,0,4.89.91,4.53,5-.25,2.83-2.43,2.54-4.36,2.76v5.22h3.1c1.22,0,2.45.05,3.66,0,2.63-.2,4.16-1.66,4.2-4.32Q76.2,282.51,76.06,272.68Zm-7.87,6.05a3.2,3.2,0,1,1,3.2-3.2A3.2,3.2,0,0,1,68.19,278.73Z"/><path class="cls-59" d="M53.43,300.74a2.93,2.93,0,0,1,0,.29.49.49,0,0,1-.34.43,2.05,2.05,0,0,1-.7,0,3,3,0,0,0-.89-.13s-.08,0-.09.05h0a3.1,3.1,0,0,0-.91.82,1.4,1.4,0,0,0-.24.45,1.23,1.23,0,0,0,.16,1.17,1.47,1.47,0,0,0,1.15.6,8.26,8.26,0,0,0,1-.06.12.12,0,0,0,.11-.1c0-.11.06-.21.08-.32s.09-.34.13-.51l.09-.31h.1l.06-.07c.36.29.63.65,1,.93a3.61,3.61,0,0,0,.3-.25.52.52,0,0,1,.65.08.72.72,0,0,1,.15.27.51.51,0,0,0,.07.17.26.26,0,0,0,.2.11h.2c.08,0,.1,0,.11-.09s0-.21,0-.31a.15.15,0,0,1,.1-.16l0,0c.06-.11.16-.09.25-.09a.13.13,0,0,1,.13.13,1.55,1.55,0,0,1,0,.22,1.33,1.33,0,0,0,0,.2.22.22,0,0,0,.2.2l.36,0c.1,0,.14,0,.17-.13a.51.51,0,0,0,0-.13c0-.11,0-.23.13-.29s.18-.11.28-.11h0a.11.11,0,0,1,.09.11c0,.06,0,.13,0,.19a1.47,1.47,0,0,0,0,.21.19.19,0,0,0,.19.19h.36a.08.08,0,0,0,.09-.06,1.23,1.23,0,0,0,0-.19.29.29,0,0,1,.09-.26.39.39,0,0,1,.32-.12c.1,0,.14.05.14.16s0,.21,0,.31.07.15.19.16h.31c.1,0,.11,0,.13.11s0,.21,0,.31a.09.09,0,0,1,0,.06l0-.22h0s0,.09,0,.14c0,.21,0,.26-.22.27a1.32,1.32,0,0,0-.28,0c-.09,0-.11,0-.1.12a1.1,1.1,0,0,0,0,.18.28.28,0,0,1-.2.3h-.05a.38.38,0,0,0,0-.15c0-.07-.05-.1-.11-.09a.09.09,0,0,0-.06.12l0,.15s-.07,0-.08-.07a1.09,1.09,0,0,1-.05-.17.61.61,0,0,0-.13-.32.12.12,0,0,0-.1-.06,1.37,1.37,0,0,0-.35,0,.74.74,0,0,0-.22.08.36.36,0,0,1,0,.28.45.45,0,0,1-.07.18c0,.05-.08.05-.14.05h-.16a.13.13,0,0,1-.16-.13.41.41,0,0,1,0-.11.44.44,0,0,0-.13-.32h-.37c-.13,0-.17.05-.17.18a1.47,1.47,0,0,0,0,.21.22.22,0,0,1-.26.27s.05-.08,0-.12a0,0,0,0,1,0,0c.09-.06,0-.08,0-.11s0-.07,0-.09a.1.1,0,0,1,0-.08l0-.24s0-.07,0-.09a.22.22,0,0,0-.16-.05.58.58,0,0,1,0,.14c0,.06,0,.1,0,.14s0,.09,0,.12-.07.08,0,.15-.08,0,0,.11a.18.18,0,0,0,0,.09c0,.05.06.06.1.06h.11a.4.4,0,0,1-.24,0,.08.08,0,0,1-.07-.09,1.33,1.33,0,0,0,0-.2c0-.08,0-.16-.05-.24a.16.16,0,0,0-.13-.07,1,1,0,0,0-.33.07.21.21,0,0,0-.1.14.68.68,0,0,1-.11.26l-.1.09a.52.52,0,0,0,.09-.51l.57-.14c0-.09.1-.1.07-.18l.15-.05a.19.19,0,0,1,.18,0,.2.2,0,0,0,.11,0,.08.08,0,0,1,.1.07l0,.08h.14l.4,0a.58.58,0,0,0,.14,0,1.29,1.29,0,0,1,.33,0,3.42,3.42,0,0,0,.45,0h.28a.56.56,0,0,0,.35-.09l.16,0c.07,0,.09,0,.14.07a.17.17,0,0,0,.12.05h.49a.33.33,0,0,0,0-.26c0-.08,0-.1-.14-.09l-.39,0a.07.07,0,0,1-.06,0l-.13,0,0-.19c0-.06,0-.11,0-.19l0,0,0-.08.06-.18h-.05a.4.4,0,0,0-.16.08c-.05,0,0,.06,0,.09s-.06,0-.06.08,0,0,.08.07a.15.15,0,0,0-.06.05.12.12,0,0,0,0,.08h0c-.1.08-.1.11,0,.18l.1.06-.1,0a.33.33,0,0,1-.1,0h0c-.15,0-.3,0-.45,0a.37.37,0,0,1-.31,0h-.11a1.07,1.07,0,0,1-.4,0l-.17,0-.44,0-.27,0c.06-.08,0-.15,0-.23a.49.49,0,0,1,0-.21.36.36,0,0,0,0-.29l0,.12c-.09,0-.11.11-.12.22a2.7,2.7,0,0,1,0,.28s0,0,0,.05,0,.12-.08.14,0,.05-.07.07-.05-.13-.11-.11-.12,0-.11.19l-.12.13a.16.16,0,0,0-.17.07.19.19,0,0,1-.16.07l-.18,0h0c-.07.11-.17.1-.27.09h0s0,.09-.07.12-.08,0-.1,0a1.19,1.19,0,0,1-.21.15.87.87,0,0,0-.21.17,1.17,1.17,0,0,1-.34.22c0-.11.16-.11.2-.21a.22.22,0,0,0-.13.06l-.46.4s0,0-.09,0a3.46,3.46,0,0,1,.66-.54c-.05-.05-.07-.06-.12,0s-.33.27-.49.42a1.42,1.42,0,0,0-.2.22s0,0,0,.08h.09l0,.2-.11-.31,0,0,.06-.12a.22.22,0,0,1,.14-.14l.11-.05,0-.07.4-.3,0,0h-.13l-.12,0c-.08,0-.16,0-.24-.05a.44.44,0,0,0-.23,0c-.06,0-.09.05-.09.12h.07l-.09.08c0-.19-.14-.23-.3-.25l-.48-.06-.72-.12a2,2,0,0,1-.64-.22c-.09-.05-.16-.09-.19-.19s.14.11.21.15l.25.11h0l.22.07a3.7,3.7,0,0,0,.48.09.51.51,0,0,0,.3,0c0-.09-.07,0-.09-.06s.12.05.16,0l-.16-.08-.2,0a.29.29,0,0,1,.18,0v0l-.57-.08a.32.32,0,0,0-.23,0h-.11v0l.17-.2a1.48,1.48,0,0,0-.29-.12.82.82,0,0,1-.26-.14,2.51,2.51,0,0,1-.44-.42.31.31,0,0,1-.11-.25s0,0,0,0a.74.74,0,0,1-.13-.56l.07,0V303a.87.87,0,0,0,.14-.33s0-.07,0-.09,0,0,0,0a.51.51,0,0,1,.15-.29l.12-.14c.09-.1.18-.21.28-.31a1.27,1.27,0,0,1,.14,0v-.09l.15-.08.06-.09a.32.32,0,0,1,.21-.15c.08,0,.15-.06.15-.19l.06.09.25-.14s0-.05,0-.05l.08,0s.09,0,.08-.06.07-.1.12-.12a.2.2,0,0,0,.14-.13.56.56,0,0,1,.18-.26l-.11-.15c.08,0,.07.06.12.06a1,1,0,0,0,0-.14l0,0c-.06,0-.1,0-.16,0s.07.1,0,.13l-.12.08v0l-.12.11v0l-.1.07v.07l-.2.16,0,0c-.05,0-.12.07-.13.15s0,0,0,0-.21.16-.3.25l-.34.35-.21.19a.15.15,0,0,0,0,.06s0,0-.06.05,0,0-.07.06l-.16.17a.09.09,0,0,0,0,.13c-.06.08-.15.13-.19.23s-.07.07-.11.1l-.08.05.05.1a.54.54,0,0,0-.16.36,1.71,1.71,0,0,0,.07.59,1,1,0,0,0,.1.33c.06.09,0,.23.16.28l0,.09h0a1.72,1.72,0,0,1-.28-.47,2.05,2.05,0,0,1,.14-1.71,3.46,3.46,0,0,1,.47-.6l.65-.65a.38.38,0,0,0,.13-.31c0-.11,0-.23,0-.35s0-.34,0-.51a1,1,0,0,1,0-.16,1.18,1.18,0,0,1,.16-.63.32.32,0,0,1,.12-.11.64.64,0,0,1,.29-.13.49.49,0,0,1,.45.27,1.42,1.42,0,0,1,.11.31c0,.14,0,.28.07.41a.16.16,0,0,0,.16.15.3.3,0,0,1,.27.26c.06.21,0,.2.26.26l.4.09a.47.47,0,0,1,.38.36.63.63,0,0,1-.27.7.62.62,0,0,0,.17-.25.45.45,0,0,0,0-.28.27.27,0,0,0-.11-.2.2.2,0,0,0-.12-.16.67.67,0,0,0-.19-.05l-.28-.08-.27-.08a.09.09,0,0,0-.11.07l.08,0a3.63,3.63,0,0,1,.45.1.73.73,0,0,1,.28.17.4.4,0,0,1-.05.54l-.06.08a.17.17,0,0,0-.14,0l.13,0c.07,0,.11-.07.15-.11a.44.44,0,0,0,0-.53l-.1-.11a.14.14,0,0,1,.16.05A.27.27,0,0,1,53.43,300.74Zm.92,3.29a.1.1,0,0,0,.1-.06.17.17,0,0,0,.15-.05c-.05,0-.11,0-.15.05s-.07,0-.1.06a.15.15,0,0,0,0,.16C54.32,304.13,54.34,304.08,54.35,304Zm-2.89-4c0-.11,0-.11-.06-.17a.32.32,0,0,0,0,.14l0,0s-.05.07,0,.12Zm1.82,4.54h-.07s0,0,.06,0l.11,0c-.08-.12-.08-.12-.15-.05s0,0,0,0l-.34,0a.92.92,0,0,0-.4.11.15.15,0,0,1-.16,0l-.05.08h0l.07,0,.09.07c0-.05,0-.1.1-.06l0,0s0,0,0,0l.06,0v.09h.33s.09,0,.1-.06l0,0a.37.37,0,0,0,.18-.21l0,0Zm1.62-.79s0,.07,0,.11a.39.39,0,0,1,.16.3s0,0,.05.05h0a.58.58,0,0,0,0-.14.79.79,0,0,0-.2-.31c-.13,0-.25,0-.37,0a1.9,1.9,0,0,1,.25,0A.13.13,0,0,0,54.9,303.79Zm-3.72-3.58,0,0c0-.08,0-.17,0-.27s-.06,0-.06.06v.21s0,0,.07,0-.06.06,0,.11S51.23,300.25,51.18,300.21Zm.34-1.28-.17,0c-.08,0-.13,0-.16.15a.37.37,0,0,1,.3-.11l0,0,.09.1a.38.38,0,0,1,.13.22c0,.16,0,.33.08.5s0,.08,0,.12v-.08c0-.12,0-.24,0-.36a.67.67,0,0,0-.2-.47A.08.08,0,0,0,51.52,298.93Zm1.59,5a.1.1,0,0,1,.09-.08l.38.32s.05.06.13,0c-.2-.17-.37-.33-.56-.47l-.07.06s-.07,0-.08.05l.11.08a2.25,2.25,0,0,0,.37.31s0-.05,0-.06l-.25-.22A.32.32,0,0,0,53.11,303.89Zm.57.1a.49.49,0,0,0-.15-.17l-.25-.23a1.13,1.13,0,0,0-.29-.24s0,.08,0,.12l.27.21.32.3h0c0,.06,0,.08.1.1S53.75,304,53.68,304Zm-2.19-5.17.16.08a.46.46,0,0,1,.22.35c0,.17.05.34.07.51,0,0,0,0,0,.07l.09,0c0-.15,0-.28-.06-.42a2.17,2.17,0,0,0-.07-.24.74.74,0,0,0-.29-.34l-.14,0,0,0a.27.27,0,0,0-.22,0h.2Zm2.66,5.95,0,.06h.44a3,3,0,0,1,.42,0l-.39,0a1,1,0,0,0-.38.07l.09,0,.8,0c.09,0,.12,0,.12-.11v-.07c0-.11,0-.12-.13-.12l-.92,0a1.62,1.62,0,0,0,.1-.18.17.17,0,0,0,0-.14.06.06,0,0,0-.11,0c0,.06,0,.12,0,.18a.59.59,0,0,1,0,.08c-.09-.07-.06-.17-.12-.24a.59.59,0,0,0,0,.08s-.06,0,0,.08l-.06.05.06.06A.34.34,0,0,0,54.15,304.77Zm-1.89.15h-.17l-.16,0h.29s0,0,0,0l0,0a.69.69,0,0,1,0,.13H52.2l0,0h-.11a.05.05,0,0,0-.05.06.07.07,0,0,0,.05,0l.47.06.16,0,.16,0,.48.06.39.07h.06a.4.4,0,0,0-.16-.06l-.08-.05c-.09-.05-.15-.16-.28-.13l0,0c-.08-.07-.15,0-.22,0s0-.08.08-.08l0-.05-.14.08,0-.18-.09,0,.13-.08-.08-.07,0,.05a.47.47,0,0,0-.35,0l0,.14c0-.08,0-.14-.12-.15S52.29,304.84,52.26,304.92Zm5-.64,0,.1c-.05,0-.06.11-.13.14s0,.06,0,.11a.17.17,0,0,0,.14.1.82.82,0,0,0,.26-.06.57.57,0,0,0,0-.14.37.37,0,0,1,0-.27.15.15,0,0,0,0-.13c.11,0,0-.1,0-.15s-.12,0-.15.1l-.06.12,0,.05Zm0,1.22s0,0,0,.07,0,.05,0,.08-.07.06,0,.11a.17.17,0,0,0,.17,0c.05,0,.05-.07,0-.12s0,0,0-.07a.41.41,0,0,0,0-.24h0l.08-.07c-.12-.16-.18-.16-.36-.06a.24.24,0,0,1,.07.2S57.23,305.46,57.25,305.5Zm-5-4.82v0l.24,0,.33,0A.4.4,0,0,1,53,301a.06.06,0,0,1-.05.11h-.17l-.63-.13a.16.16,0,0,0-.16,0l0,0a4.42,4.42,0,0,0,.5.1,3.15,3.15,0,0,0,.44,0c.09,0,.11,0,.11-.11a.32.32,0,0,0-.21-.25l-.57-.09ZM54,305l0,.1c0,.09,0,.18,0,.27s0,.08.06.08a.11.11,0,0,0,.08-.05.26.26,0,0,0,0-.28c0-.09-.13-.11-.23-.12a.11.11,0,0,0-.07,0,.32.32,0,0,0-.1.17c0,.15,0,.21.13.25C54,305.3,53.91,305.15,54,305Zm0-.88a.32.32,0,0,0-.1-.17l-.32-.32-.39-.37s-.06-.07-.1,0,0,.06,0,.09l.29.26.5.52S53.93,304.14,54,304.11Zm-2.65-3.86,0-.12s0,0,0,0c0-.17-.05-.33-.07-.49s0-.22,0-.33.1-.22.27-.18l-.07-.05a.21.21,0,0,0-.26.14.57.57,0,0,0,0,.26c0,.13,0,.26.06.39A1.1,1.1,0,0,0,51.31,300.25Zm7.09,4.86a1.08,1.08,0,0,1,.06.2.1.1,0,0,0,.2,0l0-.12a.14.14,0,0,0-.15-.19A.2.2,0,0,0,58.4,305.11ZM53.87,305a1,1,0,0,0-.24,0h-.25a.36.36,0,0,0-.23.14A2.19,2.19,0,0,0,53.87,305Zm-.62-4a.3.3,0,0,1-.38.27l-.77-.13h-.24v0l.17,0c.22,0,.44.08.67.1a.87.87,0,0,0,.36,0A.24.24,0,0,0,53.25,301Zm-.86-.39.67.13A1,1,0,0,0,52.39,300.57Zm-1-1.25a.91.91,0,0,0,0,.47l0,0,0-.22A.29.29,0,0,0,51.35,299.32Zm3.31,5.1c.08.07.19,0,.27.07l0,.05a.37.37,0,0,0,.26,0l0,0H55A.52.52,0,0,0,54.66,304.42Zm-.73.41v0h-.3l-.14,0c-.05,0-.1,0-.15.05ZM52,301.26a2.62,2.62,0,0,0,.62.12A2.2,2.2,0,0,0,52,301.26Zm-.32-1.35h0c0-.21-.05-.41-.09-.62h0Zm-.63-.46c0,.07,0,.13,0,.18s0,.14.05.18c0-.12,0-.23,0-.34S51.09,299.46,51.07,299.45Zm.49-.17s0,0,0-.07,0-.08-.07-.07a.12.12,0,0,0-.1.05s0,.06,0,.09,0,0,0,0l0-.09Zm6.93,6.17c0,.05,0,.1.06.1s.07,0,.08,0a.08.08,0,0,0,0-.08C58.57,305.39,58.53,305.43,58.49,305.45Zm-5.29-1.31c-.1-.14-.11-.16-.2-.16A.45.45,0,0,0,53.2,304.14Zm.23.46c.11,0,.11-.11.18-.14A.19.19,0,0,0,53.43,304.6Zm1.44-.62.11.24A.23.23,0,0,0,54.87,304Zm-3.77-4.76c-.06.07,0,.12,0,.18Zm-.07.94,0,.21C51.07,300.3,51.1,300.22,51,300.16Zm3.74,4.37v0h-.26v0Zm.57.15.1-.1h-.11Zm-2.67-3.79v0l.09,0h.09v0Zm2.45,3.74h.16C55.21,304.58,55.17,304.57,55.12,304.63Zm-.5-.55c-.12,0-.13,0-.15.08Zm-2.82.58v0l-.11,0h.11Zm1.14-.52q0-.08-.06-.09Zm-.07.12,0,0-.06-.06,0,0Zm1.69.85h-.11v.06Zm-.12-1.25v0l-.1.05v0Zm1.17.73v0l.09,0h-.1Zm-2.67-.7v0h0v0Zm-.83.73v0h.07v0Zm-.38-3.4v0h.07v0Zm-1.54,2.35h0l0,.07h0Zm2.41-2.67v0h-.08v0Zm.38,2.62h0l0,.05h0Zm.59,1.63v0h0Zm.34-.94v0h0v0Zm.28-.07s0,0,0,0h0l0,0Zm4.61-.08,0,0,0,0v0Zm-5.88-2.67h0Zm-1.74-1s0,0,0,0h0a0,0,0,0,0,0,0Z"/><path class="cls-59" d="M54.28,305.84c-.05-.14-.05-.15.07-.18s0-.09-.06-.12a3.17,3.17,0,0,0,.74-.12c.06.19-.08.28-.2.4a.48.48,0,0,0,.24-.17c0,.1-.11.24-.26.3a.54.54,0,0,1-.43,0V306l-.25-.24-.17.08.11-.16s.06,0,.08,0l.11.16Zm.56-.14c-.06,0-.09,0-.14,0a.15.15,0,0,0,.14-.05,1.07,1.07,0,0,0,.16-.14s0-.06,0-.07-.05,0-.06,0Zm-.36.15a.11.11,0,0,0,.14,0Zm-.1-.06,0,0s0-.06-.1,0Zm.31.08v0l.06,0v0Zm.1-.34,0,0,0,0,0,0Z"/><path class="cls-59" d="M49.9,304.29l.07,0s.05.05.08.06.06.06.09.09a1.08,1.08,0,0,0,.2.16.19.19,0,0,1,.08.1.06.06,0,0,1-.09,0,3.12,3.12,0,0,1-.43-.46Z"/><path class="cls-59" d="M53.1,306.48a2.85,2.85,0,0,1,.47-.51A2.26,2.26,0,0,1,53.1,306.48Z"/><path class="cls-59" d="M52.89,305.79l0-.05,0,0,.21-.16h0l-.11.11Z"/><path class="cls-59" d="M53.09,305.93l-.17.21A.21.21,0,0,1,53.09,305.93Z"/><path class="cls-59" d="M53.21,305.82c.07-.11.13-.19.24-.21l-.11.1Z"/><path class="cls-59" d="M53,305.73a1.17,1.17,0,0,1-.05.11l-.08.09c0-.05,0-.07,0-.1l.12-.1Z"/><path class="cls-59" d="M50.94,305.05l0-.11.15,0v0H51s-.05,0-.05.05Z"/><path class="cls-59" d="M53,305.73l.14-.1a.12.12,0,0,1-.14.1Z"/><path class="cls-59" d="M51.15,305c.09-.06.09-.06.14,0Z"/><path class="cls-59" d="M51.54,305l-.09,0C51.51,304.94,51.52,305,51.54,305Z"/><path class="cls-59" d="M50.82,304.79v.08h0l0-.07Z"/><path class="cls-59" d="M53.78,306l.07-.06h0l-.07.06Z"/><path class="cls-59" d="M53.08,301.57h0Z"/><path class="cls-59" d="M55.84,304.94l-.12,0S55.76,304.93,55.84,304.94Z"/><path class="cls-59" d="M52.71,301.56h0Z"/><path class="cls-59" d="M50.88,304.74h0l0,0Z"/><path class="cls-59" d="M53.57,306.17l0,0h0l0,0Z"/><path class="cls-59" d="M52.33,305l.14,0a.15.15,0,0,1-.13.06Z"/><path class="cls-59" d="M52.87,305c0,.06,0,0-.1,0Z"/><path class="cls-59" d="M53.05,304.62q-.07-.08,0-.09Z"/><path class="cls-59" d="M52.72,304.62l.06,0h0l-.07,0Z"/></symbol></defs><g id="Calque_2" data-name="Calque 2"><g id="Calque_2-2" data-name="Calque 2"><use width="905.36" height="760.57" xlink:href="#Nouveau_symbole"/></g></g></svg>